<svg version="1.1" id="Layer_1" xmlns="http://www.w3.org/2000/svg" xmlns:xlink="http://www.w3.org/1999/xlink" x="0px" y="0px"
	 width="300px" height="200px" viewBox="0 0 300 200" enable-background="new 0 0 300 200" xml:space="preserve">
<path fill="#FEFEFF" opacity="1.000000" stroke="none"
	d="
M194.000000,201.000000
	C129.333344,201.000000 65.166679,201.000000 1.000017,201.000000
	C1.000011,134.333344 1.000011,67.666695 1.000006,1.000035
	C100.999969,1.000023 200.999939,1.000023 300.999939,1.000012
	C300.999939,67.666634 300.999939,134.333267 300.999969,200.999939
	C265.500000,201.000000 230.000000,201.000000 194.000000,201.000000
M235.543411,49.977642
	C235.367279,50.002144 235.191132,50.026649 234.551132,49.489594
	C233.033478,48.659107 231.515823,47.828621 230.698792,46.987137
	C233.231018,47.086472 235.764648,47.280685 238.294815,47.242752
	C239.456711,47.225338 240.611771,46.752323 243.012558,46.200069
	C239.681656,44.629147 237.812363,43.626358 235.853561,42.849125
	C231.859528,41.264347 229.785019,42.563667 229.300385,46.932705
	C224.581726,46.101746 219.012054,51.010162 217.228287,56.982243
	C216.193329,57.558842 215.158371,58.135445 214.123413,58.712048
	C214.511490,59.178162 214.899551,59.644276 215.287628,60.110390
	C216.205414,59.091591 217.123184,58.072796 218.790085,57.027760
	C222.795578,57.276669 222.102417,54.980339 220.180038,51.746258
	C223.274887,53.227791 225.243286,54.170078 227.189316,55.753822
	C227.075775,56.163540 226.962234,56.573261 226.093033,56.992069
	C225.277176,57.774109 223.918457,58.458385 223.756424,59.358170
	C223.399216,61.341801 223.645462,63.434101 223.645462,65.088943
	C221.085068,65.449112 219.029861,65.738220 216.988190,66.015999
	C216.988190,66.015999 216.974304,66.025658 216.980209,65.329460
	C216.621323,64.718361 216.262436,64.107262 215.903549,63.496162
	C215.605759,64.334953 215.307953,65.173752 214.089447,66.007545
	C212.268677,66.013321 210.447601,66.043167 208.627167,66.020935
	C197.258224,65.882111 189.716248,60.442680 187.577927,49.235909
	C186.932312,45.852280 186.504425,42.427105 185.991776,38.346241
	C185.208740,37.545300 184.425705,36.744358 183.378510,35.110615
	C183.252411,33.078224 183.126328,31.045830 183.110916,28.279301
	C180.740616,25.827726 178.370316,23.376152 175.647156,20.316736
	C170.109634,14.974888 163.410492,16.882811 157.050354,17.631418
	C154.924652,17.881620 152.981644,19.683887 150.149490,20.927927
	C145.749832,21.040840 141.350174,21.153753 136.026062,21.150686
	C126.125420,21.139568 116.212006,20.845991 106.332031,21.292326
	C103.430969,21.423386 100.624718,23.653357 97.281433,25.069681
	C97.159126,25.544817 97.036812,26.019953 96.292381,27.178564
	C96.022156,33.115555 95.751930,39.052544 94.971298,44.962498
	C94.631477,44.995377 94.291649,45.028255 93.112808,45.006760
	C89.000580,44.664093 84.894211,44.158047 80.774994,44.010460
	C69.929535,43.621872 63.261265,48.483593 61.277481,59.778412
	C59.628250,69.168449 60.692406,79.188782 61.581814,88.835205
	C62.940128,103.567383 63.894444,117.688477 52.474182,129.737244
	C44.420128,138.234558 48.226814,150.901993 54.177811,156.716034
	C56.606651,159.088974 58.844383,161.657532 60.528427,164.589828
	C56.019955,166.059860 51.183990,166.947250 47.130051,169.225906
	C44.824783,170.521698 42.457802,174.172058 42.602394,176.615067
	C42.727558,178.729843 46.014175,181.592102 48.492428,182.480255
	C63.775383,187.957214 78.975777,186.084579 94.753983,181.007919
	C95.500435,180.908188 96.246880,180.808472 97.562027,180.799316
	C98.051872,180.552536 98.541718,180.305756 99.963074,180.059265
	C105.311600,180.035156 110.660133,180.011047 116.541443,180.496384
	C118.028000,180.606384 119.514549,180.716370 121.656647,180.968430
	C122.103210,180.977493 122.549767,180.986542 123.567368,181.521500
	C137.472885,185.113556 151.644547,183.995865 165.755981,183.852081
	C166.827194,183.841171 167.892456,183.245682 169.829178,182.966309
	C174.927643,182.451767 180.016388,181.655197 185.126526,181.478958
	C197.350449,181.057343 209.598587,180.453766 221.810226,180.818390
	C233.209732,181.158768 244.378510,180.809784 254.973526,176.290222
	C256.731232,175.540421 258.733276,173.094193 258.822540,171.340271
	C258.911987,169.584534 257.062012,167.345566 255.483749,165.993515
	C253.777237,164.531586 251.401443,163.850906 248.926102,162.313629
	C248.314972,162.282028 247.703842,162.250443 246.214981,162.244858
	C244.458191,162.183121 242.701416,162.121368 240.943390,161.208832
	C239.792862,157.749847 238.642349,154.290863 237.873703,150.237610
	C238.739838,149.122971 239.605957,148.008331 241.125763,146.851746
	C247.255432,138.837280 245.255676,128.873810 247.393356,119.902725
	C247.554291,119.227356 245.199570,117.213585 243.875336,117.065636
	C240.293808,116.665497 236.637299,116.936295 233.399704,116.414627
	C237.747543,112.627502 242.068024,108.808365 246.450302,105.061501
	C251.732254,100.545357 255.930161,95.302116 253.637939,87.973816
	C252.312561,83.736458 249.429520,79.986305 247.837158,75.687653
	C251.939026,72.756294 254.620636,62.027920 251.498550,59.145077
	C251.166992,61.442894 250.876312,63.457424 250.578979,65.518074
	C246.064148,63.889706 245.693695,60.332104 249.020676,52.595291
	C250.094315,54.176117 251.183014,55.779133 252.271729,57.382149
	C252.633987,57.267353 252.996262,57.152554 253.358521,57.037758
	C253.358521,54.432281 253.358521,51.826805 253.358521,49.739975
	C249.622910,48.624985 246.527100,47.700951 243.370682,46.758831
	C243.229843,48.766224 243.092331,50.726337 242.987961,52.214054
	C240.827393,51.292496 239.368088,50.670052 237.437103,50.004467
	C237.437103,50.004467 236.962723,49.983856 236.520203,49.953026
	C236.520203,49.953026 236.076630,49.959579 235.543411,49.977642
z"/>
<path fill="#F8D0E3" opacity="1.000000" stroke="none"
	d="
M61.169060,164.137085
	C58.844383,161.657532 56.606651,159.088974 54.177811,156.716034
	C48.226814,150.901993 44.420128,138.234558 52.474182,129.737244
	C63.894444,117.688477 62.940128,103.567383 61.581814,88.835205
	C60.692406,79.188782 59.628250,69.168449 61.277481,59.778412
	C63.261265,48.483593 69.929535,43.621872 80.774994,44.010460
	C84.894211,44.158047 89.000580,44.664093 93.548111,45.495583
	C93.986237,73.659416 93.989059,101.334435 93.613434,129.011017
	C91.667999,129.761337 89.876709,130.239014 88.578873,131.313004
	C85.499054,133.861618 82.389549,136.469055 79.816887,139.498428
	C78.396896,141.170486 77.784492,143.799911 80.993729,145.364975
	C80.987679,146.137375 80.992012,146.579102 80.826042,147.400604
	C80.410278,152.880554 80.164818,157.980728 79.473030,163.057129
	C74.018135,163.676285 69.009567,164.319199 63.719463,164.854141
	C62.681641,164.543137 61.925350,164.340118 61.169060,164.137085
z"/>
<path fill="#F0A3C4" opacity="1.000000" stroke="none"
	d="
M64.000999,164.962112
	C69.009567,164.319199 74.018135,163.676285 79.495094,163.502914
	C79.971611,166.126801 79.658859,168.350784 80.105614,170.409988
	C80.383125,171.689087 81.772224,173.651520 82.730423,173.691895
	C86.136368,173.835312 89.571495,173.285660 93.332703,173.145325
	C95.702606,173.123245 97.735390,172.954315 99.979218,173.045990
	C100.808273,173.452484 101.426285,173.598389 102.487915,173.801392
	C106.364258,173.250290 110.752197,176.031158 113.221848,171.058746
	C113.674545,171.120316 113.853615,171.158432 114.355316,171.451508
	C122.909676,171.803940 131.141266,171.914825 139.373169,171.992630
	C142.911057,172.026077 146.449600,171.990814 150.323532,172.135773
	C154.221756,174.601822 157.487961,174.834412 160.620880,170.935425
	C163.237396,170.938187 165.422684,171.140015 167.556503,170.894485
	C171.225815,170.472290 174.863022,169.771210 178.717072,169.248184
	C179.206772,169.301865 179.482452,169.243866 179.916687,169.435791
	C185.365952,174.342255 189.322723,174.931122 195.455582,171.988815
	C199.558746,171.380249 203.312576,171.033157 206.843262,169.955185
	C208.204544,169.539597 209.058792,167.463364 210.458374,166.056778
	C211.534882,164.962219 212.297089,163.954620 213.303696,162.954041
	C213.548096,162.961060 214.018814,162.828629 214.433197,162.985916
	C220.782547,162.351883 226.639236,161.847626 231.572845,166.384842
	C232.518311,167.254349 233.712906,167.994431 234.924377,168.378799
	C235.622543,168.600296 236.584885,167.989166 237.810242,167.828827
	C238.449295,167.940506 238.706436,167.976181 238.978027,168.381119
	C240.728500,170.373611 242.464508,171.996841 244.462967,173.865448
	C245.407120,171.441788 245.867477,170.089355 246.453918,168.794022
	C247.363312,166.785385 248.358658,164.815674 249.317566,162.829468
	C251.401443,163.850906 253.777237,164.531586 255.483749,165.993515
	C257.062012,167.345566 258.911987,169.584534 258.822540,171.340271
	C258.733276,173.094193 256.731232,175.540421 254.973526,176.290222
	C244.378510,180.809784 233.209732,181.158768 221.810226,180.818390
	C209.598587,180.453766 197.350449,181.057343 185.126526,181.478958
	C180.016388,181.655197 174.927643,182.451767 169.095581,182.663330
	C166.566177,182.241608 164.772064,182.073547 162.974304,182.012283
	C152.629272,181.659683 142.283997,181.311340 131.937408,181.009811
	C128.959442,180.923019 125.976814,180.995926 122.996330,180.995605
	C122.549767,180.986542 122.103210,180.977493 121.252609,180.562469
	C119.235260,180.099991 117.621964,180.043472 116.008659,179.986938
	C110.660133,180.011047 105.311600,180.035156 99.343651,179.826828
	C98.147263,179.965836 97.570297,180.337296 96.993332,180.708755
	C96.246880,180.808472 95.500435,180.908188 94.118225,180.716675
	C86.555153,181.484863 79.618607,182.487839 72.702850,183.617996
	C64.103851,185.023193 56.073463,182.511627 48.122845,179.929153
	C45.355881,179.030396 43.450893,176.238525 46.077858,173.736755
	C48.664364,171.273499 52.116337,169.611465 55.390606,168.011292
	C58.108341,166.683075 61.119709,165.955673 64.000999,164.962112
z"/>
<path fill="#F5D0E3" opacity="1.000000" stroke="none"
	d="
M247.247498,76.016891
	C249.429520,79.986305 252.312561,83.736458 253.637939,87.973816
	C255.930161,95.302116 251.732254,100.545357 246.450302,105.061501
	C242.068024,108.808365 237.747543,112.627502 232.762878,116.726746
	C228.536057,117.360565 224.941422,117.983322 221.357178,117.928459
	C216.784668,117.858459 214.321564,119.515038 213.732132,124.262634
	C213.077911,129.531982 211.925797,134.739502 210.684662,139.834167
	C206.762283,137.117569 204.439362,133.786469 203.881775,129.252441
	C203.778702,128.414352 202.705215,127.695602 202.113129,126.656570
	C202.433884,125.944237 202.721146,125.497086 203.302521,124.903671
	C203.434570,123.996460 203.272491,123.235535 203.203400,122.371902
	C203.296402,122.269196 203.204926,122.007629 203.204254,121.546967
	C202.782013,115.416718 202.360443,109.747139 202.100052,103.772766
	C205.031464,101.154999 206.468201,98.579628 206.161316,94.588814
	C205.816574,90.105934 206.703217,85.528366 207.324097,80.726349
	C207.853012,78.351761 209.356689,75.827179 205.682800,74.682404
	C205.655304,73.929626 205.716339,73.496323 206.066437,72.880295
	C206.756439,71.989365 207.043701,70.778900 207.577576,70.658066
	C210.184555,70.068024 212.969086,69.171555 215.456329,69.636902
	C216.577988,69.846764 217.132736,72.985741 218.007751,74.764725
	C218.099380,74.951012 218.619385,74.926605 218.970901,75.364952
	C219.314240,76.773422 219.627304,77.816902 220.061584,79.115555
	C220.481964,79.589806 220.781143,79.808899 221.114929,80.351891
	C221.669952,80.193367 222.190353,79.710945 223.006790,79.085876
	C223.845032,78.573219 224.387253,78.203201 225.252899,77.903259
	C227.410400,78.450424 229.227982,79.248634 231.081650,79.343719
	C236.394974,79.616302 242.280380,82.197517 246.294067,76.131241
	C246.408371,75.958473 246.920746,76.049088 247.247498,76.016891
z"/>
<path fill="#88CDF1" opacity="1.000000" stroke="none"
	d="
M210.990479,139.973953
	C211.925797,134.739502 213.077911,129.531982 213.732132,124.262634
	C214.321564,119.515038 216.784668,117.858459 221.357178,117.928459
	C224.941422,117.983322 228.536057,117.360565 232.568298,116.989914
	C236.637299,116.936295 240.293808,116.665497 243.875336,117.065636
	C245.199570,117.213585 247.554291,119.227356 247.393356,119.902725
	C245.255676,128.873810 247.255432,138.837280 240.636993,146.497009
	C239.545792,145.728210 238.944031,144.956299 238.340790,144.955154
	C231.894745,144.942841 225.448456,145.052521 218.750885,145.071686
	C218.333511,145.058838 218.167465,145.103058 217.631714,145.103165
	C216.524155,145.141449 215.786285,145.223831 214.690674,145.224106
	C213.224030,144.685196 212.115173,144.228409 210.900543,143.661041
	C210.794800,143.550491 210.488876,143.544876 210.401260,143.551727
	C210.313644,143.558578 210.298401,143.733704 210.243805,143.405945
	C209.821182,142.848419 209.453156,142.618622 209.227600,142.353912
	C209.370056,142.318985 209.438339,142.033676 209.711105,141.958496
	C210.319412,141.246857 210.654953,140.610413 210.990479,139.973953
M229.584229,127.197029
	C229.305130,127.375900 229.107605,127.620613 228.792664,128.470779
	C228.524704,128.979187 228.256729,129.487579 227.445267,130.485870
	C226.842957,135.606903 227.080536,135.910080 231.709259,134.909729
	C232.772766,132.949585 233.836258,130.989426 235.557556,128.929611
	C235.849289,128.482971 236.141037,128.036331 236.432785,127.589706
	C235.539185,127.435539 234.645599,127.281364 233.007828,127.092552
	C232.015076,127.068130 231.022339,127.043716 229.584229,127.197029
z"/>
<path fill="#F8F5F4" opacity="1.000000" stroke="none"
	d="
M247.542328,75.852272
	C246.920746,76.049088 246.408371,75.958473 246.294067,76.131241
	C242.280380,82.197517 236.394974,79.616302 231.081650,79.343719
	C229.227982,79.248634 227.410400,78.450424 225.067505,77.668427
	C223.368896,76.569557 222.179153,75.775589 220.992828,74.622948
	C220.642456,73.835136 220.288666,73.405998 219.670258,72.761131
	C218.595306,70.372704 217.784988,68.200012 216.974670,66.027321
	C219.029861,65.738220 221.085068,65.449112 223.645462,65.088943
	C223.645462,63.434101 223.399216,61.341801 223.756424,59.358170
	C223.918457,58.458385 225.277176,57.774109 226.510986,57.403824
	C226.250687,62.316319 225.572418,66.817062 224.824600,71.779449
	C230.922180,71.779449 236.464203,71.779449 242.425720,71.833847
	C245.589844,65.688683 242.120621,60.532623 239.784470,55.033493
	C239.287155,54.665310 239.038803,54.408108 238.836563,53.795464
	C238.558060,52.309216 238.233414,51.178410 237.908783,50.047607
	C239.368088,50.670052 240.827393,51.292496 242.987961,52.214054
	C243.092331,50.726337 243.229843,48.766224 243.370682,46.758831
	C246.527100,47.700951 249.622910,48.624985 253.358521,49.739975
	C253.358521,51.826805 253.358521,54.432281 253.358521,57.037758
	C252.996262,57.152554 252.633987,57.267353 252.271729,57.382149
	C251.183014,55.779133 250.094315,54.176117 249.020676,52.595291
	C245.693695,60.332104 246.064148,63.889706 250.578979,65.518074
	C250.876312,63.457424 251.166992,61.442894 251.498550,59.145077
	C254.620636,62.027920 251.939026,72.756294 247.542328,75.852272
z"/>
<path fill="#2D365E" opacity="1.000000" stroke="none"
	d="
M96.914505,26.495090
	C97.036812,26.019953 97.159126,25.544817 97.928345,25.011841
	C99.376106,24.965710 100.176964,24.977417 100.947632,25.303658
	C100.570068,26.327494 100.222702,27.036793 99.323235,28.873447
	C103.853210,28.426142 107.683586,28.269459 111.425751,27.611250
	C114.664192,27.041641 117.802505,25.902760 121.131210,25.340683
	C122.302994,29.131378 123.685051,29.874006 126.596863,26.985561
	C127.850235,25.742235 130.252640,25.657242 132.145615,25.435719
	C132.807343,26.484781 133.444153,27.703043 134.107559,27.717710
	C141.362015,27.878080 148.622269,27.921698 155.875259,27.752554
	C156.527908,27.737333 157.140808,26.017124 158.157394,25.094215
	C165.358612,29.760986 172.713379,28.195099 180.042938,27.366003
	C180.030197,28.855957 180.014084,29.939474 179.531403,31.071075
	C173.411499,31.118183 167.758026,31.094711 162.104797,31.120232
	C140.497437,31.217775 118.890160,31.331081 97.202621,30.950279
	C97.053101,29.139734 96.983803,27.817411 96.914505,26.495090
z"/>
<path fill="#E77570" opacity="1.000000" stroke="none"
	d="
M242.006226,71.779449
	C236.464203,71.779449 230.922180,71.779449 224.824600,71.779449
	C225.572418,66.817062 226.250687,62.316319 226.888824,57.399277
	C226.962234,56.573261 227.075775,56.163540 227.566696,55.425018
	C230.481903,54.511135 233.019730,53.926060 235.562347,53.314552
	C235.567139,53.288120 235.576050,53.349968 235.832809,53.565903
	C236.744202,53.871136 237.398819,53.960442 238.236359,54.084747
	C238.419266,54.119751 238.790436,54.150913 238.790436,54.150909
	C239.038803,54.408108 239.287155,54.665310 239.769455,55.458069
	C240.671021,61.255566 241.338623,66.517509 242.006226,71.779449
z"/>
<path fill="#EDD0E3" opacity="1.000000" stroke="none"
	d="
M216.981430,66.021660
	C217.784988,68.200012 218.595306,70.372704 219.589813,73.033615
	C219.496201,74.014549 219.218414,74.507256 218.940628,74.999962
	C218.619385,74.926605 218.099380,74.951012 218.007751,74.764725
	C217.132736,72.985741 216.577988,69.846764 215.456329,69.636902
	C212.969086,69.171555 210.184555,70.068024 207.577576,70.658066
	C207.043701,70.778900 206.756439,71.989365 205.905914,72.678551
	C205.163040,72.049660 204.869736,71.439789 204.440338,70.478699
	C201.706299,67.236221 198.866272,65.341286 194.657959,67.849724
	C193.966125,67.872292 193.571213,67.901031 192.939056,67.595871
	C190.808731,67.201996 188.915649,67.142044 186.681671,67.024689
	C185.881241,66.944939 185.421692,66.922585 184.972931,66.438225
	C184.987289,59.063168 185.073273,52.148357 184.926056,45.238522
	C184.895981,43.827068 183.990540,42.434265 183.376312,40.695644
	C183.340988,39.897148 183.417969,39.435879 183.805573,38.968216
	C184.736404,38.981537 185.356598,39.001247 185.976807,39.020958
	C186.504425,42.427105 186.932312,45.852280 187.577927,49.235909
	C189.716248,60.442680 197.258224,65.882111 208.627167,66.020935
	C210.447601,66.043167 212.268677,66.013321 214.877167,66.014145
	C216.101364,66.022377 216.537827,66.024017 216.974304,66.025658
	C216.974304,66.025658 216.988190,66.015999 216.981430,66.021660
z"/>
<path fill="#1F284F" opacity="1.000000" stroke="none"
	d="
M219.002243,145.128723
	C225.448456,145.052521 231.894745,144.942841 238.340790,144.955154
	C238.944031,144.956299 239.545792,145.728210 240.310150,146.517975
	C239.605957,148.008331 238.739838,149.122971 237.387848,150.648956
	C234.634048,152.721558 232.366135,154.382812 229.689575,156.031052
	C223.303131,154.086533 219.101105,149.795593 215.048431,145.306213
	C215.786285,145.223831 216.524155,145.141449 217.728638,145.247940
	C218.464249,145.334122 218.733246,145.231430 219.002243,145.128723
z"/>
<path fill="#F7DFFE" opacity="1.000000" stroke="none"
	d="
M93.991882,129.009445
	C93.989059,101.334435 93.986237,73.659416 93.967621,45.522770
	C94.291649,45.028255 94.631477,44.995377 95.319550,45.436638
	C95.710312,75.909615 95.752815,105.908463 95.491432,135.863525
	C94.470741,135.207367 93.753944,134.594986 93.309357,133.731003
	C93.718353,131.989410 93.855118,130.499420 93.991882,129.009445
z"/>
<path fill="#E5ADC5" opacity="1.000000" stroke="none"
	d="
M63.719463,164.854141
	C61.119709,165.955673 58.108341,166.683075 55.390606,168.011292
	C52.116337,169.611465 48.664364,171.273499 46.077858,173.736755
	C43.450893,176.238525 45.355881,179.030396 48.122845,179.929153
	C56.073463,182.511627 64.103851,185.023193 72.702850,183.617996
	C79.618607,182.487839 86.555153,181.484863 93.740295,180.705292
	C78.975777,186.084579 63.775383,187.957214 48.492428,182.480255
	C46.014175,181.592102 42.727558,178.729843 42.602394,176.615067
	C42.457802,174.172058 44.824783,170.521698 47.130051,169.225906
	C51.183990,166.947250 56.019955,166.059860 60.848743,164.363464
	C61.925350,164.340118 62.681641,164.543137 63.719463,164.854141
z"/>
<path fill="#261A39" opacity="1.000000" stroke="none"
	d="
M95.795319,135.907303
	C95.752815,105.908463 95.710312,75.909615 95.574753,45.450153
	C95.751930,39.052544 96.022156,33.115555 96.603439,26.836826
	C96.983803,27.817411 97.053101,29.139734 97.276428,31.384968
	C97.377800,66.827438 97.325142,101.346992 96.903534,135.889191
	C96.288170,135.910309 96.041740,135.908798 95.795319,135.907303
z"/>
<path fill="#4C5171" opacity="1.000000" stroke="none"
	d="
M179.997986,31.022995
	C180.014084,29.939474 180.030197,28.855957 179.994064,26.985779
	C176.510971,25.116219 173.110184,23.229464 169.643646,23.099686
	C158.828445,22.694790 147.988388,22.954475 137.118683,22.674980
	C137.036438,22.017859 136.993484,21.642263 136.950516,21.266666
	C141.350174,21.153753 145.749832,21.040840 151.017151,20.939255
	C159.923203,20.941916 167.961609,20.933249 176.000015,20.924580
	C178.370316,23.376152 180.740616,25.827726 182.751007,28.866745
	C182.165268,30.424675 181.939453,31.395163 181.480682,32.220982
	C180.831131,31.725206 180.414566,31.374102 179.997986,31.022995
z"/>
<path fill="#F8F5F4" opacity="1.000000" stroke="none"
	d="
M235.557556,53.340981
	C233.019730,53.926060 230.481903,54.511135 227.577881,55.104286
	C225.243286,54.170078 223.274887,53.227791 220.180038,51.746258
	C222.102417,54.980339 222.795578,57.276669 218.391998,57.011971
	C217.993896,56.996185 217.943390,56.941338 217.943390,56.941338
	C219.012054,51.010162 224.581726,46.101746 229.650192,46.966354
	C230.000000,47.000000 229.998169,46.998138 229.998169,46.998138
	C231.515823,47.828621 233.033478,48.659107 234.790894,50.190670
	C235.206284,51.708157 235.381927,52.524567 235.557556,53.340981
z"/>
<path fill="#E5ADC5" opacity="1.000000" stroke="none"
	d="
M123.281845,181.258545
	C125.976814,180.995926 128.959442,180.923019 131.937408,181.009811
	C142.283997,181.311340 152.629272,181.659683 162.974304,182.012283
	C164.772064,182.073547 166.566177,182.241608 168.661240,182.641144
	C167.892456,183.245682 166.827194,183.841171 165.755981,183.852081
	C151.644547,183.995865 137.472885,185.113556 123.281845,181.258545
z"/>
<path fill="#F0D5E6" opacity="1.000000" stroke="none"
	d="
M175.823578,20.620659
	C167.961609,20.933249 159.923203,20.941916 151.419952,20.863632
	C152.981644,19.683887 154.924652,17.881620 157.050354,17.631418
	C163.410492,16.882811 170.109634,14.974888 175.823578,20.620659
z"/>
<path fill="#262E54" opacity="1.000000" stroke="none"
	d="
M136.488281,21.208677
	C136.993484,21.642263 137.036438,22.017859 136.634277,22.692587
	C131.128006,22.999557 126.066856,23.007399 120.537613,23.008120
	C114.720947,23.012407 109.372383,23.023817 103.700592,23.048515
	C102.583763,23.700659 101.790169,24.339514 100.996986,24.985813
	C100.997398,24.993259 100.977821,24.989124 100.977821,24.989124
	C100.176964,24.977417 99.376106,24.965710 98.175133,24.937687
	C100.624718,23.653357 103.430969,21.423386 106.332031,21.292326
	C116.212006,20.845991 126.125420,21.139568 136.488281,21.208677
z"/>
<path fill="#E5CEE3" opacity="1.000000" stroke="none"
	d="
M230.098206,156.044083
	C232.366135,154.382812 234.634048,152.721558 237.196899,150.946091
	C238.642349,154.290863 239.792862,157.749847 240.614716,161.636261
	C239.846329,162.048874 239.406631,162.034058 238.653839,161.877045
	C235.593231,159.837936 232.845718,157.941010 230.098206,156.044083
z"/>
<path fill="#D1668D" opacity="1.000000" stroke="none"
	d="
M249.121826,162.571548
	C248.358658,164.815674 247.363312,166.785385 246.453918,168.794022
	C245.867477,170.089355 245.407120,171.441788 244.462967,173.865448
	C242.464508,171.996841 240.728500,170.373611 239.381439,168.376312
	C244.093185,168.457230 246.167877,166.065964 247.092712,162.218857
	C247.703842,162.250443 248.314972,162.282028 249.121826,162.571548
z"/>
<path fill="#E69CB2" opacity="1.000000" stroke="none"
	d="
M246.653839,162.231857
	C246.167877,166.065964 244.093185,168.457230 239.367004,168.007050
	C238.706436,167.976181 238.449295,167.940506 237.951019,167.480804
	C238.128891,165.377594 238.547913,163.698425 238.966934,162.019241
	C239.406631,162.034058 239.846329,162.048874 240.615326,162.061646
	C242.701416,162.121368 244.458191,162.183121 246.653839,162.231857
z"/>
<path fill="#F8F5F4" opacity="1.000000" stroke="none"
	d="
M230.000916,47.000938
	C229.785019,42.563667 231.859528,41.264347 235.853561,42.849125
	C237.812363,43.626358 239.681656,44.629147 243.012558,46.200069
	C240.611771,46.752323 239.456711,47.225338 238.294815,47.242752
	C235.764648,47.280685 233.231018,47.086472 230.348480,46.992638
	C229.998169,46.998138 230.000000,47.000000 230.000916,47.000938
z"/>
<path fill="#261A39" opacity="1.000000" stroke="none"
	d="
M181.713623,32.365646
	C181.939453,31.395163 182.165268,30.424675 182.695663,29.233812
	C183.126328,31.045830 183.252411,33.078224 183.358612,35.885647
	C183.390793,37.431988 183.442886,38.203297 183.494965,38.974606
	C183.417969,39.435879 183.340988,39.897148 183.283997,41.153851
	C183.224518,50.244724 183.145020,58.540165 182.912781,67.118820
	C182.391998,67.609383 182.023972,67.816727 181.619507,67.554893
	C181.626587,55.512356 181.670105,43.938999 181.713623,32.365646
z"/>
<path fill="#E5ADC5" opacity="1.000000" stroke="none"
	d="
M116.275055,180.241669
	C117.621964,180.043472 119.235260,180.099991 120.924835,180.491455
	C119.514549,180.716370 118.028000,180.606384 116.275055,180.241669
z"/>
<path fill="#F8F5F4" opacity="1.000000" stroke="none"
	d="
M218.017426,57.025093
	C217.123184,58.072796 216.205414,59.091591 215.287628,60.110390
	C214.899551,59.644276 214.511490,59.178162 214.123413,58.712048
	C215.158371,58.135445 216.193329,57.558842 217.585846,56.961792
	C217.943390,56.941338 217.993896,56.996185 218.017426,57.025093
z"/>
<path fill="#F7DFFE" opacity="1.000000" stroke="none"
	d="
M183.805573,38.968216
	C183.442886,38.203297 183.390793,37.431988 183.490692,36.302048
	C184.425705,36.744358 185.208740,37.545300 185.984283,38.683601
	C185.356598,39.001247 184.736404,38.981537 183.805573,38.968216
z"/>
<path fill="#F8F5F4" opacity="1.000000" stroke="none"
	d="
M216.977264,65.677559
	C216.537827,66.024017 216.101364,66.022377 215.337524,66.016640
	C215.307953,65.173752 215.605759,64.334953 215.903549,63.496162
	C216.262436,64.107262 216.621323,64.718361 216.977264,65.677559
z"/>
<path fill="#F3E5DF" opacity="1.000000" stroke="none"
	d="
M238.053452,54.049747
	C237.398819,53.960442 236.744202,53.871136 235.962433,53.154121
	C235.915726,51.670803 235.996185,50.815189 236.076630,49.959579
	C236.076630,49.959579 236.520203,49.953026 236.750793,50.324783
	C237.338745,51.814278 237.696106,52.932011 238.053452,54.049747
z"/>
<path fill="#E5ADC5" opacity="1.000000" stroke="none"
	d="
M238.236359,54.084747
	C237.696106,52.932011 237.338745,51.814278 236.972061,50.340199
	C236.962723,49.983856 237.437103,50.004467 237.672943,50.026039
	C238.233414,51.178410 238.558060,52.309216 238.836563,53.795464
	C238.790436,54.150913 238.419266,54.119751 238.236359,54.084747
z"/>
<path fill="#E5ADC5" opacity="1.000000" stroke="none"
	d="
M97.277679,180.754028
	C97.570297,180.337296 98.147263,179.965836 98.877892,179.826691
	C98.541718,180.305756 98.051872,180.552536 97.277679,180.754028
z"/>
<path fill="#E5ADC5" opacity="1.000000" stroke="none"
	d="
M235.810028,49.968613
	C235.996185,50.815189 235.915726,51.670803 235.705658,52.938190
	C235.576050,53.349968 235.567139,53.288120 235.562347,53.314545
	C235.381927,52.524567 235.206284,51.708157 235.022827,50.471451
	C235.191132,50.026649 235.367279,50.002144 235.810028,49.968613
z"/>
<path fill="#F4F1F3" opacity="1.000000" stroke="none"
	d="
M92.995575,172.998489
	C89.571495,173.285660 86.136368,173.835312 82.730423,173.691895
	C81.772224,173.651520 80.383125,171.689087 80.105614,170.409988
	C79.658859,168.350784 79.971611,166.126801 79.941422,163.526672
	C80.164818,157.980728 80.410278,152.880554 81.283905,147.397888
	C85.541656,147.019669 89.171234,147.023941 92.868439,147.491150
	C92.955902,156.302231 92.975739,164.650360 92.995575,172.998489
z"/>
<path fill="#E9E4EC" opacity="1.000000" stroke="none"
	d="
M93.613434,129.011017
	C93.855118,130.499420 93.718353,131.989410 92.978745,133.561935
	C88.633034,132.474396 88.060600,134.766556 87.852249,137.827148
	C89.534294,138.073074 91.081993,138.299347 92.805161,138.551270
	C92.805161,140.825729 92.805161,142.902557 92.356842,144.988525
	C88.273720,145.009857 84.638908,145.022079 81.004097,145.034286
	C77.784492,143.799911 78.396896,141.170486 79.816887,139.498428
	C82.389549,136.469055 85.499054,133.861618 88.578873,131.313004
	C89.876709,130.239014 91.667999,129.761337 93.613434,129.011017
z"/>
<path fill="#D9D1D2" opacity="1.000000" stroke="none"
	d="
M80.993729,145.364975
	C84.638908,145.022079 88.273720,145.009857 92.429367,145.327576
	C92.900406,146.114395 92.850616,146.571304 92.800827,147.028214
	C89.171234,147.023941 85.541656,147.019669 81.454208,147.018097
	C80.992012,146.579102 80.987679,146.137375 80.993729,145.364975
z"/>
<path fill="#2C3667" opacity="1.000000" stroke="none"
	d="
M238.653839,161.877045
	C238.547913,163.698425 238.128891,165.377594 237.569092,167.404785
	C236.584885,167.989166 235.622543,168.600296 234.924377,168.378799
	C233.712906,167.994431 232.518311,167.254349 231.572845,166.384842
	C226.639236,161.847626 220.782547,162.351883 214.418457,162.631256
	C215.523178,155.426987 209.923203,156.439941 206.495102,155.361130
	C202.184631,154.004593 202.618423,157.831177 202.060211,160.072037
	C200.939072,164.572632 199.869858,168.973679 194.609894,171.050797
	C191.094330,170.827286 187.963593,170.634064 184.855789,170.253433
	C183.133209,170.042465 181.448975,169.518219 179.747467,169.135162
	C179.482452,169.243866 179.206772,169.301865 178.212891,169.195831
	C173.145584,169.082458 168.785812,169.082458 164.346634,169.082458
	C165.385544,159.865631 168.269058,157.310287 175.754456,157.628906
	C176.791306,157.673065 177.903229,155.953369 179.065979,154.921082
	C179.151581,154.791931 179.461395,154.785416 179.808685,154.820953
	C182.818680,153.963348 183.537766,152.743607 180.837845,150.601868
	C181.046906,149.841980 181.231339,149.425476 181.731506,148.917328
	C182.329788,147.827118 182.612335,146.828537 183.057800,145.541992
	C185.308777,142.452011 187.396790,139.650024 189.600739,136.793304
	C189.716660,136.738571 189.864487,136.529114 190.189178,136.481506
	C191.917755,135.883301 193.321640,135.332687 195.060913,134.950287
	C197.964569,136.050720 200.532837,136.982956 203.065598,137.948685
	C203.030090,137.982178 203.052414,137.887146 203.148697,138.139465
	C203.556168,138.548843 203.867340,138.705917 204.141144,138.835480
	C204.103760,138.807983 204.193634,138.784775 204.163300,139.172668
	C205.527664,140.305466 206.922348,141.050400 208.598541,141.849335
	C209.066147,141.946777 209.252243,141.990234 209.438339,142.033676
	C209.438339,142.033676 209.370056,142.318985 209.307953,142.677170
	C209.596695,143.268127 209.947540,143.500916 210.298401,143.733704
	C210.298401,143.733704 210.313644,143.558578 210.314453,143.752625
	C210.545593,143.888306 210.775955,143.829956 211.006302,143.771606
	C212.115173,144.228409 213.224030,144.685196 214.690674,145.224106
	C219.101105,149.795593 223.303131,154.086533 229.689575,156.031052
	C232.845718,157.941010 235.593231,159.837936 238.653839,161.877045
z"/>
<path fill="#F3F2F5" opacity="1.000000" stroke="none"
	d="
M112.948235,171.035263
	C110.752197,176.031158 106.364258,173.250290 102.522293,173.524063
	C103.879387,170.394775 102.237961,169.052063 99.807983,167.594330
	C99.776222,165.787415 99.840050,164.390823 100.296417,162.952759
	C106.624435,161.092499 107.245438,159.581879 106.387230,153.404663
	C105.775841,149.003952 106.089348,144.474747 106.325378,140.001465
	C107.107666,140.000229 107.554695,140.000397 108.324921,140.174240
	C109.094910,141.479263 110.172905,142.823120 109.876282,143.704193
	C108.753639,147.038956 110.291985,148.729507 112.995941,150.247559
	C112.996223,150.667282 112.996750,150.835159 112.971008,151.323883
	C112.955040,152.760223 112.965347,153.875732 112.899254,155.452927
	C112.875977,160.616974 112.929092,165.319336 112.919739,170.273285
	C112.887596,170.695007 112.917915,170.865143 112.948235,171.035263
z"/>
<path fill="#2E3153" opacity="1.000000" stroke="none"
	d="
M99.903870,162.994247
	C99.840050,164.390823 99.776222,165.787415 99.704666,167.981506
	C99.720673,170.114471 99.744423,171.449921 99.768166,172.785370
	C97.735390,172.954315 95.702606,173.123245 93.332703,173.145325
	C92.975739,164.650360 92.955902,156.302231 92.868446,147.491150
	C92.850616,146.571304 92.900406,146.114395 92.877678,145.318451
	C92.805161,142.902557 92.805161,140.825729 92.805161,138.551270
	C91.081993,138.299347 89.534294,138.073074 87.852249,137.827148
	C88.060600,134.766556 88.633034,132.474396 92.706528,133.813553
	C93.753944,134.594986 94.470741,135.207367 95.491432,135.863525
	C96.041740,135.908798 96.288170,135.910309 97.185715,135.847076
	C98.206810,135.717667 98.576797,135.653000 98.956978,135.942444
	C99.192032,137.174179 99.416885,138.051773 99.644661,139.402435
	C99.733009,147.581757 99.818443,155.287994 99.903870,162.994247
M95.000916,161.483429
	C95.000916,164.486206 95.000916,167.488983 95.000916,171.392380
	C98.686630,167.747711 98.948280,155.566818 95.000916,152.238052
	C95.000916,155.001450 95.000916,157.764862 95.000916,161.483429
z"/>
<path fill="#2B234A" opacity="1.000000" stroke="none"
	d="
M195.004272,171.002823
	C199.869858,168.973679 200.939072,164.572632 202.060211,160.072037
	C202.618423,157.831177 202.184631,154.004593 206.495102,155.361130
	C209.923203,156.439941 215.523178,155.426987 214.004089,162.473969
	C214.018814,162.828629 213.548096,162.961060 213.279236,162.634018
	C212.343094,162.203583 211.119797,161.931030 211.092072,162.022217
	C210.682739,163.367661 210.432236,164.761429 210.144058,166.143738
	C209.058792,167.463364 208.204544,169.539597 206.843262,169.955185
	C203.312576,171.033157 199.558746,171.380249 195.455460,171.749878
	C195.016937,171.480698 195.004272,171.002823 195.004272,171.002823
z"/>
<path fill="#DE9990" opacity="1.000000" stroke="none"
	d="
M160.166504,170.933212
	C157.487961,174.834412 154.221756,174.601822 150.315308,171.912201
	C149.971375,171.539627 149.936188,171.093262 150.026123,170.863846
	C150.116043,170.634430 150.169922,170.145859 150.361710,169.854034
	C155.962204,166.771622 159.341995,162.454483 160.594955,156.219299
	C160.796387,155.685669 160.843597,155.353851 161.015976,154.909546
	C161.141129,154.797043 161.469284,154.722229 161.876251,154.790436
	C164.125610,154.568237 165.968002,154.277847 167.908295,154.216339
	C168.006210,154.445251 168.215988,154.896835 167.916931,155.095062
	C165.134094,160.506592 162.650299,165.719910 160.166504,170.933212
z"/>
<path fill="#3F3A5B" opacity="1.000000" stroke="none"
	d="
M160.620880,170.935425
	C162.650299,165.719910 165.134094,160.506592 168.352386,155.129913
	C172.384735,154.994446 175.682556,155.022339 178.980392,155.050232
	C177.903229,155.953369 176.791306,157.673065 175.754456,157.628906
	C168.269058,157.310287 165.385544,159.865631 164.346634,169.082458
	C168.785812,169.082458 173.145584,169.082458 178.009521,169.134827
	C174.863022,169.771210 171.225815,170.472290 167.556503,170.894485
	C165.422684,171.140015 163.237396,170.938187 160.620880,170.935425
z"/>
<path fill="#D2ADD2" opacity="1.000000" stroke="none"
	d="
M149.936188,171.093262
	C149.936188,171.093262 149.971375,171.539627 149.979614,171.763199
	C146.449600,171.990814 142.911057,172.026077 139.373169,171.992630
	C131.141266,171.914825 122.909676,171.803940 114.357437,171.343262
	C114.036911,170.980057 113.940140,170.787277 114.411499,170.821411
	C124.251343,170.816788 133.619827,170.778046 143.394684,170.833435
	C144.908051,170.850739 146.015045,170.773941 147.410858,170.742920
	C148.086914,170.777756 148.474167,170.766830 149.119080,170.875336
	C149.563248,171.027634 149.749725,171.060455 149.936188,171.093262
z"/>
<path fill="#3F3A5B" opacity="1.000000" stroke="none"
	d="
M194.609894,171.050797
	C195.004272,171.002823 195.016937,171.480698 195.017059,171.719635
	C189.322723,174.931122 185.365952,174.342255 179.916687,169.435791
	C181.448975,169.518219 183.133209,170.042465 184.855789,170.253433
	C187.963593,170.634064 191.094330,170.827286 194.609894,171.050797
z"/>
<path fill="#ECEDEE" opacity="1.000000" stroke="none"
	d="
M99.979218,173.045990
	C99.744423,171.449921 99.720673,170.114471 99.800247,168.391846
	C102.237961,169.052063 103.879387,170.394775 102.078674,173.466949
	C101.426285,173.598389 100.808273,173.452484 99.979218,173.045990
z"/>
<path fill="#D1668D" opacity="1.000000" stroke="none"
	d="
M210.458374,166.056778
	C210.432236,164.761429 210.682739,163.367661 211.092072,162.022217
	C211.119797,161.931030 212.343094,162.203583 213.034821,162.626999
	C212.297089,163.954620 211.534882,164.962219 210.458374,166.056778
z"/>
<path fill="#5E446F" opacity="1.000000" stroke="none"
	d="
M113.221848,171.058746
	C112.917915,170.865143 112.887596,170.695007 113.122620,170.339813
	C113.650368,170.297180 113.834427,170.508026 113.940140,170.787277
	C113.940140,170.787277 114.036911,170.980057 114.034790,171.088287
	C113.853615,171.158432 113.674545,171.120316 113.221848,171.058746
z"/>
<path fill="#11153A" opacity="1.000000" stroke="none"
	d="
M184.962128,66.900230
	C185.421692,66.922585 185.881241,66.944939 186.962067,67.296646
	C189.447662,67.727257 191.311981,67.828514 193.176300,67.929779
	C193.571213,67.901031 193.966125,67.872292 194.714447,68.196365
	C198.237381,69.309425 201.406906,70.069672 204.576416,70.829926
	C204.869736,71.439789 205.163040,72.049660 205.616852,72.861275
	C205.716339,73.496323 205.655304,73.929626 205.551636,75.057999
	C206.024033,77.499374 206.539078,79.245682 207.054138,80.991989
	C206.703217,85.528366 205.816574,90.105934 206.161316,94.588814
	C206.468201,98.579628 205.031464,101.154999 201.765625,103.743484
	C200.185577,103.312042 199.101135,102.605103 197.953583,101.562859
	C196.538391,99.595024 194.881729,98.046051 197.903839,96.301575
	C198.473969,95.972481 198.461777,94.634583 198.772705,93.826904
	C198.827103,93.891624 198.671936,93.824402 199.014587,93.694153
	C199.521591,92.877785 199.685959,92.191666 199.803131,91.385429
	C199.755936,91.265320 199.908325,91.057030 200.256042,90.870270
	C200.766251,87.485397 200.928726,84.287285 201.001511,80.779922
	C200.252914,80.622147 199.594009,80.773628 198.556763,80.974152
	C197.439056,81.216881 196.699677,81.410568 195.597961,81.474159
	C192.445053,81.792290 189.666245,82.362083 186.858582,82.633423
	C185.602615,82.754799 184.288803,82.277298 183.001251,82.071579
	C183.043167,83.641327 182.860046,85.257179 183.170395,86.771927
	C184.007111,90.855682 185.054153,94.896347 185.920532,99.209091
	C185.744141,99.816734 185.664963,100.169411 185.217529,100.550255
	C176.561676,103.468460 171.734848,111.242966 172.065277,121.426407
	C171.661697,123.521790 171.329651,125.245041 170.849640,127.198257
	C170.203918,127.609924 169.706146,127.791611 169.056458,127.671692
	C166.840958,125.147591 164.777359,122.925102 162.613434,120.366737
	C162.099762,119.475296 161.686447,118.919731 161.177658,118.007156
	C158.183960,110.270683 158.217072,103.677628 164.961548,97.979973
	C170.807968,93.040970 174.247253,86.632164 175.696060,78.863068
	C176.364304,75.279541 179.363602,72.130714 181.696152,68.836861
	C183.085419,68.353394 184.084503,67.817848 185.034607,67.192703
	C184.985641,67.103096 184.962128,66.900230 184.962128,66.900230
z"/>
<path fill="#DA4F92" opacity="1.000000" stroke="none"
	d="
M203.008392,125.049942
	C202.721146,125.497086 202.433884,125.944237 201.945312,126.979454
	C200.796463,129.815979 199.848938,132.064423 198.514206,134.247665
	C197.086456,134.079590 196.045898,133.976715 194.859268,133.615845
	C191.421722,131.853592 190.341461,133.730148 189.864487,136.529114
	C189.864487,136.529114 189.716660,136.738571 189.293015,136.832047
	C186.755463,137.542389 184.654144,139.913559 182.468384,136.547058
	C182.373398,134.416122 182.324707,132.709320 182.467438,130.800583
	C183.579544,129.425232 184.500244,128.251816 185.677414,126.751549
	C183.810959,126.550720 182.276001,126.385559 180.518799,126.059860
	C180.188293,125.752045 180.080063,125.604752 179.939514,125.216858
	C179.923828,124.653214 179.944885,124.330467 180.296936,124.003738
	C181.058960,123.990524 181.494370,123.981575 182.367004,123.983757
	C185.441467,123.873337 188.681870,122.717842 190.596542,123.834831
	C195.295242,126.575989 198.358429,123.295052 202.312653,121.995041
	C202.808380,122.000862 203.006653,122.004250 203.204926,122.007629
	C203.204926,122.007629 203.296402,122.269196 203.168121,122.802368
	C203.029358,123.907005 203.018890,124.478470 203.008392,125.049942
z"/>
<path fill="#DD9995" opacity="1.000000" stroke="none"
	d="
M198.901398,134.312866
	C199.848938,132.064423 200.796463,129.815979 201.911804,127.244644
	C202.705215,127.695602 203.778702,128.414352 203.881775,129.252441
	C204.439362,133.786469 206.762283,137.117569 210.684662,139.834167
	C210.654953,140.610413 210.319412,141.246857 209.711105,141.958496
	C209.252243,141.990234 209.066147,141.946777 208.412994,141.579498
	C206.695175,140.432053 205.444397,139.608414 204.193634,138.784775
	C204.193634,138.784775 204.103760,138.807983 204.055969,138.576508
	C203.689575,138.192398 203.371002,138.039764 203.052414,137.887146
	C203.052414,137.887146 203.030090,137.982178 202.910187,137.672592
	C201.494003,136.346298 200.197693,135.329575 198.901398,134.312866
z"/>
<path fill="#BC578D" opacity="1.000000" stroke="none"
	d="
M203.204254,121.546967
	C203.006653,122.004250 202.808380,122.000862 202.309830,121.597435
	C201.677902,119.135605 201.346252,117.073814 201.179535,114.919289
	C201.233658,114.548149 201.122833,114.269745 201.004807,113.610641
	C199.294128,109.682175 200.017075,104.348351 194.100891,103.568245
	C194.060730,102.823555 194.040115,102.397766 194.053589,101.669418
	C194.115433,101.165802 194.143173,100.964737 194.495743,100.853806
	C195.885925,101.262016 196.951309,101.580086 198.016678,101.898163
	C199.101135,102.605103 200.185577,103.312042 201.604462,104.048271
	C202.360443,109.747139 202.782013,115.416718 203.204254,121.546967
z"/>
<path fill="#F3F2F5" opacity="1.000000" stroke="none"
	d="
M220.989395,74.981621
	C222.179153,75.775589 223.368896,76.569557 224.744064,77.598358
	C224.387253,78.203201 223.845032,78.573219 222.813782,79.209061
	C221.909943,79.659264 221.495132,79.843620 221.080338,80.027985
	C220.781143,79.808899 220.481964,79.589806 220.091278,78.771454
	C220.329636,77.108673 220.659515,76.045151 220.989395,74.981621
z"/>
<path fill="#EDD0E3" opacity="1.000000" stroke="none"
	d="
M207.324097,80.726349
	C206.539078,79.245682 206.024033,77.499374 205.640152,75.377472
	C209.356689,75.827179 207.853012,78.351761 207.324097,80.726349
z"/>
<path fill="#6A6A86" opacity="1.000000" stroke="none"
	d="
M220.992828,74.622948
	C220.659515,76.045151 220.329636,77.108673 219.970062,78.516296
	C219.627304,77.816902 219.314240,76.773422 218.970901,75.364952
	C219.218414,74.507256 219.496201,74.014549 219.854431,73.249359
	C220.288666,73.405998 220.642456,73.835136 220.992828,74.622948
z"/>
<path fill="#6A6A86" opacity="1.000000" stroke="none"
	d="
M221.114929,80.351883
	C221.495132,79.843620 221.909943,79.659264 222.517746,79.351715
	C222.190353,79.710945 221.669952,80.193367 221.114929,80.351883
z"/>
<path fill="#BC578D" opacity="1.000000" stroke="none"
	d="
M203.302521,124.903664
	C203.018890,124.478470 203.029358,123.907005 203.075134,122.905075
	C203.272491,123.235535 203.434570,123.996460 203.302521,124.903664
z"/>
<path fill="#E2F8FD" opacity="1.000000" stroke="none"
	d="
M227.988770,129.995987
	C228.256729,129.487579 228.524704,128.979187 229.116516,128.116150
	C229.720688,127.580757 229.917099,127.333351 230.029587,127.019302
	C231.022339,127.043716 232.015076,127.068130 233.464035,127.384064
	C234.246750,128.126816 234.573257,128.578049 234.899765,129.029282
	C233.836258,130.989426 232.772766,132.949585 231.057022,134.790619
	C229.599442,133.113007 228.794098,131.554504 227.988770,129.995987
z"/>
<path fill="#95CFEB" opacity="1.000000" stroke="none"
	d="
M227.717010,130.240936
	C228.794098,131.554504 229.599442,133.113007 230.701553,134.845688
	C227.080536,135.910080 226.842957,135.606903 227.717010,130.240936
z"/>
<path fill="#95CFEB" opacity="1.000000" stroke="none"
	d="
M235.228668,128.979446
	C234.573257,128.578049 234.246750,128.126816 233.836121,127.401382
	C234.645599,127.281364 235.539185,127.435539 236.432770,127.589706
	C236.141037,128.036331 235.849289,128.482971 235.228668,128.979446
z"/>
<path fill="#4B3356" opacity="1.000000" stroke="none"
	d="
M210.243805,143.405945
	C209.947540,143.500916 209.596695,143.268127 209.165482,142.712097
	C209.453156,142.618622 209.821182,142.848419 210.243805,143.405945
z"/>
<path fill="#4B3356" opacity="1.000000" stroke="none"
	d="
M210.900543,143.661041
	C210.775955,143.829956 210.545593,143.888306 210.402069,143.745773
	C210.488876,143.544876 210.794800,143.550491 210.900543,143.661041
z"/>
<path fill="#95CFEB" opacity="1.000000" stroke="none"
	d="
M229.806915,127.108170
	C229.917099,127.333351 229.720688,127.580757 229.216003,127.846344
	C229.107605,127.620613 229.305130,127.375900 229.806915,127.108170
z"/>
<path fill="#2C3667" opacity="1.000000" stroke="none"
	d="
M218.750885,145.071686
	C218.733246,145.231430 218.464249,145.334122 218.098343,145.292038
	C218.167465,145.103058 218.333511,145.058838 218.750885,145.071686
z"/>
<path fill="#B15956" opacity="1.000000" stroke="none"
	d="
M242.425720,71.833847
	C241.338623,66.517509 240.671021,61.255566 240.018417,55.569050
	C242.120621,60.532623 245.589844,65.688683 242.425720,71.833847
z"/>
<path fill="#FBFBFB" opacity="1.000000" stroke="none"
	d="
M181.305969,68.784782
	C179.363602,72.130714 176.364304,75.279541 175.696060,78.863068
	C174.247253,86.632164 170.807968,93.040970 164.961548,97.979973
	C158.217072,103.677628 158.183960,110.270683 161.053192,118.345612
	C161.587387,119.594917 162.150589,120.148766 162.713776,120.702606
	C164.777359,122.925102 166.840958,125.147591 168.923615,127.627861
	C168.942673,127.885643 168.720001,128.054749 168.468750,128.217651
	C168.512360,129.260315 168.807220,130.140076 169.086273,131.366882
	C168.955246,132.161514 168.839996,132.609100 168.555542,133.183990
	C168.187943,133.531006 168.079086,133.788605 168.071259,134.047089
	C168.082764,134.010086 168.108231,134.083298 167.725845,134.063034
	C165.894958,136.358627 164.446457,138.674500 162.688293,141.158493
	C162.255035,143.547241 162.131470,145.767883 161.858582,148.292084
	C160.605362,149.410721 159.412567,150.134857 158.440857,151.085083
	C158.045853,151.471344 158.131577,152.349197 157.737457,153.286560
	C155.649460,153.708267 153.822601,153.846817 152.037933,153.614227
	C152.402328,151.544937 152.724533,149.846756 153.166138,147.904083
	C153.576294,147.452377 153.867020,147.245148 154.540741,147.013855
	C156.582596,144.756561 158.285004,142.550858 159.768204,140.206467
	C159.840240,140.092606 157.987335,138.760925 156.938370,137.597626
	C155.354233,136.798492 153.868988,136.082947 152.369720,136.052246
	C145.917114,135.920135 139.460403,135.989059 133.004333,135.750961
	C133.003464,135.517166 133.007675,135.049194 133.467224,135.035278
	C137.609161,135.009979 141.291580,134.998596 145.386169,134.992493
	C147.376587,134.853760 148.954834,134.709747 150.533066,134.565750
	C150.434616,133.998001 150.336151,133.430252 150.237701,132.862503
	C148.496750,133.231323 146.755798,133.600159 144.564453,133.977295
	C138.355515,133.666016 132.596970,133.346451 126.838440,133.026871
	C126.806824,133.594177 126.775208,134.161469 126.743591,134.728760
	C127.827385,134.828461 128.911179,134.928162 129.996674,135.353882
	C129.997192,136.114700 129.996002,136.549469 129.583710,136.987869
	C126.933243,136.873703 124.693901,136.755920 122.454552,136.638138
	C122.424950,136.880737 122.395355,137.123322 122.365753,137.365921
	C122.911827,137.577881 123.457893,137.789856 123.963882,138.363434
	C123.147430,140.109360 122.260704,141.444565 121.618401,142.888504
	C120.397346,145.633484 120.941528,147.296371 124.651115,146.901062
	C125.262177,147.325867 125.611832,147.697800 125.809402,148.371811
	C124.770576,150.721771 123.883827,152.769623 122.572952,154.898209
	C120.426208,154.924149 118.703583,154.869354 116.796967,154.602051
	C116.075310,154.256332 115.537659,154.123123 114.994415,153.636780
	C114.324974,152.523438 113.661133,151.763245 112.997284,151.003052
	C112.996750,150.835159 112.996223,150.667282 113.291954,150.035339
	C113.913322,149.200348 114.215240,148.805527 114.567856,148.462906
	C115.695770,147.366959 117.633377,146.422913 117.841248,145.182709
	C118.625359,140.504440 113.121773,141.550217 111.399490,138.912231
	C111.227074,138.648132 109.179192,139.608490 108.001717,140.000580
	C107.554695,140.000397 107.107666,140.000229 106.329910,139.579071
	C105.734787,136.920197 105.470413,134.682312 105.206032,132.444427
	C104.798050,132.650726 104.390060,132.857025 103.629333,133.013855
	C101.833321,133.839050 100.390045,134.713684 98.946777,135.588318
	C98.576797,135.653000 98.206810,135.717667 97.554657,135.824432
	C97.325142,101.346992 97.377800,66.827438 97.356651,31.873192
	C118.890160,31.331081 140.497437,31.217775 162.104797,31.120232
	C167.758026,31.094711 173.411499,31.118183 179.531418,31.071075
	C180.414566,31.374102 180.831131,31.725206 181.480667,32.220978
	C181.670105,43.938999 181.626587,55.512356 181.456161,67.710068
	C181.329254,68.334435 181.305969,68.784782 181.305969,68.784782
M130.005539,112.715965
	C130.033722,113.128090 130.061905,113.540222 130.051758,114.762405
	C131.261093,118.886360 134.667282,116.307144 137.322601,117.757195
	C137.546616,120.168098 137.770615,122.579002 137.191864,125.005112
	C134.399399,125.848106 131.606934,126.691101 128.130829,127.740471
	C133.126312,132.079941 143.476196,132.040756 150.508972,127.526138
	C146.522797,126.447830 143.770615,125.703339 141.014084,124.125038
	C141.133591,121.386475 140.049255,118.142418 144.843353,117.007248
	C148.717209,117.508072 150.227036,115.703026 150.041229,111.933548
	C149.928665,109.650200 150.162125,107.349792 150.889526,104.925171
	C152.837601,103.524475 154.955063,102.303825 156.687439,100.673889
	C158.524948,98.945023 158.747864,97.249451 155.190948,96.305031
	C155.102631,95.600471 155.014328,94.895905 154.884491,93.757950
	C154.802933,93.468353 154.637741,93.239052 154.151703,92.302299
	C153.988663,91.243515 153.825623,90.184738 154.209595,88.847389
	C153.860565,88.226463 153.511551,87.605537 152.991333,86.323105
	C152.933426,85.643417 152.875534,84.963737 153.104919,83.668228
	C152.745239,82.775139 152.385559,81.882050 151.907791,81.062759
	C151.907791,81.062759 151.768631,81.066971 151.866135,80.256310
	C151.078064,77.117302 150.289978,73.978287 149.330307,70.143761
	C147.869720,68.790283 146.409149,67.436813 144.823410,65.706375
	C144.604706,65.860748 144.385986,66.015121 144.147354,66.197266
	C144.147354,66.197266 144.158112,66.234009 143.583344,65.740860
	C142.292084,64.504021 141.000809,63.267181 139.709549,62.030342
	C138.448822,63.462452 137.188080,64.894554 135.210999,66.113907
	C133.306595,67.412231 130.452866,68.310883 129.701843,70.094780
	C128.280609,73.470642 128.066742,77.354790 127.122124,81.737572
	C127.051659,82.477364 126.981194,83.217155 126.492859,84.575500
	C125.502403,89.116112 124.511948,93.656723 123.230530,99.531235
	C126.272804,98.189255 127.697151,97.560959 129.061203,97.753944
	C129.183914,98.564392 129.306625,99.374847 129.230179,100.776985
	C129.189346,101.188950 129.148529,101.600922 128.876389,102.881401
	C129.244003,105.953163 129.611603,109.024933 130.005539,112.715965
M148.179138,51.999809
	C142.980301,51.999809 137.781479,51.999809 132.582642,51.999809
	C132.619492,52.448696 132.656342,52.897579 132.693192,53.346466
	C139.240311,53.346466 145.787445,53.346466 152.334564,53.346466
	C152.335037,53.030781 152.335526,52.715096 152.336014,52.399410
	C151.248978,52.266365 150.161942,52.133320 148.179138,51.999809
M114.356827,38.982052
	C116.372070,38.813385 118.387306,38.644722 120.402550,38.476055
	C120.353645,38.135426 120.304749,37.794792 120.255844,37.454163
	C114.716202,37.454163 109.176567,37.454163 103.636925,37.454163
	C103.620468,37.963631 103.604019,38.473099 103.587563,38.982567
	C106.861557,38.982567 110.135551,38.982567 114.356827,38.982052
M111.848717,42.990509
	C109.117195,42.161037 106.385674,41.331570 103.591736,40.483143
	C103.692421,42.098389 103.776253,43.443169 103.845535,44.554569
	C109.687302,44.281544 115.340981,44.017311 120.994659,43.753075
	C120.996857,43.498474 120.999054,43.243874 121.001251,42.989273
	C118.243149,42.989273 115.485054,42.989273 111.848717,42.990509
M123.596573,134.599457
	C122.786896,134.094864 121.977219,133.590256 121.167542,133.085663
	C120.937347,133.542847 120.707161,134.000046 120.476967,134.457230
	C121.312370,134.592621 122.147774,134.727997 123.596573,134.599457
z"/>
<path fill="#2E3B6F" opacity="1.000000" stroke="none"
	d="
M121.005714,23.015240
	C126.066856,23.007399 131.128006,22.999557 136.673553,22.974113
	C147.988388,22.954475 158.828445,22.694790 169.643646,23.099686
	C173.110184,23.229464 176.510971,25.116219 179.990692,26.579346
	C172.713379,28.195099 165.358612,29.760986 157.713181,25.059715
	C148.633514,25.028488 140.383286,25.037249 132.133041,25.046009
	C130.252640,25.657242 127.850235,25.742235 126.596863,26.985561
	C123.685051,29.874006 122.302994,29.131378 121.136559,25.007015
	C120.999084,23.903858 121.002403,23.459549 121.005714,23.015240
z"/>
<path fill="#2C366D" opacity="1.000000" stroke="none"
	d="
M120.537613,23.008118
	C121.002403,23.459549 120.999084,23.903858 120.990417,24.681839
	C117.802505,25.902760 114.664192,27.041641 111.425751,27.611250
	C107.683586,28.269459 103.853210,28.426142 99.323235,28.873447
	C100.222702,27.036793 100.570068,26.327494 100.947632,25.303658
	C100.977821,24.989124 100.997398,24.993259 101.349800,24.988493
	C102.476082,24.334227 103.249954,23.684727 104.023827,23.035227
	C109.372383,23.023817 114.720947,23.012407 120.537613,23.008118
z"/>
<path fill="#6A719B" opacity="1.000000" stroke="none"
	d="
M132.145615,25.435719
	C140.383286,25.037249 148.633514,25.028488 157.327972,25.054226
	C157.140808,26.017124 156.527908,27.737333 155.875259,27.752554
	C148.622269,27.921698 141.362015,27.878080 134.107559,27.717710
	C133.444153,27.703043 132.807343,26.484781 132.145615,25.435719
z"/>
<path fill="#F7DFFE" opacity="1.000000" stroke="none"
	d="
M183.065536,66.835609
	C183.145020,58.540165 183.224518,50.244724 183.396317,41.491074
	C183.990540,42.434265 184.895981,43.827068 184.926056,45.238522
	C185.073273,52.148357 184.987289,59.063168 184.972931,66.438225
	C184.962128,66.900230 184.985641,67.103096 184.688934,67.160934
	C183.949997,67.091057 183.507767,66.963333 183.065536,66.835609
z"/>
<path fill="#1C1533" opacity="1.000000" stroke="none"
	d="
M204.440338,70.478699
	C201.406906,70.069672 198.237381,69.309425 195.011368,68.202538
	C198.866272,65.341286 201.706299,67.236221 204.440338,70.478699
z"/>
<path fill="#1C1533" opacity="1.000000" stroke="none"
	d="
M192.939056,67.595863
	C191.311981,67.828514 189.447662,67.727257 187.302948,67.354050
	C188.915649,67.142044 190.808731,67.201996 192.939056,67.595863
z"/>
<path fill="#2D365E" opacity="1.000000" stroke="none"
	d="
M103.700592,23.048515
	C103.249954,23.684727 102.476082,24.334227 101.349388,24.981049
	C101.790169,24.339514 102.583763,23.700659 103.700592,23.048515
z"/>
<path fill="#1C1533" opacity="1.000000" stroke="none"
	d="
M182.912781,67.118820
	C183.507767,66.963333 183.949997,67.091057 184.737915,67.250542
	C184.084503,67.817848 183.085419,68.353394 181.696152,68.836861
	C181.305969,68.784782 181.329254,68.334435 181.492584,68.179260
	C182.023972,67.816727 182.391998,67.609383 182.912781,67.118820
z"/>
<path fill="#F6F5F5" opacity="1.000000" stroke="none"
	d="
M179.065979,154.921082
	C175.682556,155.022339 172.384735,154.994446 168.651443,154.931702
	C168.215988,154.896835 168.006210,154.445251 168.099579,153.906494
	C170.435989,149.156754 172.679047,144.945770 175.294891,140.893372
	C177.464401,141.386536 179.261124,141.721100 181.083008,142.461273
	C181.322815,144.173462 181.537476,145.480057 181.685806,147.157623
	C181.551575,148.022049 181.483658,148.515518 181.415741,149.008972
	C181.231339,149.425476 181.046906,149.841980 180.595215,150.848785
	C180.039078,152.554535 179.750244,153.669968 179.461395,154.785416
	C179.461395,154.785416 179.151581,154.791931 179.065979,154.921082
z"/>
<path fill="#AD528F" opacity="1.000000" stroke="none"
	d="
M181.752136,146.786652
	C181.537476,145.480057 181.322815,144.173462 181.388901,142.216202
	C181.951309,140.034088 182.232986,138.502625 182.514664,136.971176
	C184.654144,139.913559 186.755463,137.542389 189.177094,136.886780
	C187.396790,139.650024 185.308777,142.452011 182.889679,145.632660
	C182.289780,146.269775 182.020950,146.528214 181.752136,146.786652
z"/>
<path fill="#4B3356" opacity="1.000000" stroke="none"
	d="
M198.514206,134.247665
	C200.197693,135.329575 201.494003,136.346298 202.945709,137.639099
	C200.532837,136.982956 197.964569,136.050720 195.142899,134.727585
	C194.889496,134.336685 195.005341,133.873840 195.005341,133.873840
	C196.045898,133.976715 197.086456,134.079590 198.514206,134.247665
z"/>
<path fill="#AD528F" opacity="1.000000" stroke="none"
	d="
M194.859268,133.615845
	C195.005341,133.873840 194.889496,134.336685 194.807526,134.559387
	C193.321640,135.332687 191.917755,135.883301 190.189178,136.481506
	C190.341461,133.730148 191.421722,131.853592 194.859268,133.615845
z"/>
<path fill="#3F3A5B" opacity="1.000000" stroke="none"
	d="
M179.808685,154.820953
	C179.750244,153.669968 180.039078,152.554535 180.570557,151.192169
	C183.537766,152.743607 182.818680,153.963348 179.808685,154.820953
z"/>
<path fill="#4B3356" opacity="1.000000" stroke="none"
	d="
M204.163300,139.172668
	C205.444397,139.608414 206.695175,140.432053 208.131485,141.525497
	C206.922348,141.050400 205.527664,140.305466 204.163300,139.172668
z"/>
<path fill="#3F3A5B" opacity="1.000000" stroke="none"
	d="
M181.685806,147.157623
	C182.020950,146.528214 182.289780,146.269775 182.726746,145.920654
	C182.612335,146.828537 182.329788,147.827118 181.731491,148.917328
	C181.483658,148.515518 181.551575,148.022049 181.685806,147.157623
z"/>
<path fill="#4B3356" opacity="1.000000" stroke="none"
	d="
M203.148697,138.139465
	C203.371002,138.039764 203.689575,138.192398 204.093353,138.604004
	C203.867340,138.705917 203.556168,138.548843 203.148697,138.139465
z"/>
<path fill="#ECEDEE" opacity="1.000000" stroke="none"
	d="
M103.982071,133.063309
	C104.390060,132.857025 104.798050,132.650726 105.206032,132.444427
	C105.470413,134.682312 105.734787,136.920197 105.994637,139.580475
	C106.089348,144.474747 105.775841,149.003952 106.387230,153.404663
	C107.245438,159.581879 106.624435,161.092499 100.296417,162.952759
	C99.818443,155.287994 99.733009,147.581757 100.010162,139.313553
	C103.931961,138.350510 105.514977,136.695465 103.982071,133.063309
z"/>
<path fill="#333054" opacity="1.000000" stroke="none"
	d="
M114.411499,170.821411
	C113.834427,170.508026 113.650368,170.297180 113.185081,170.088242
	C112.929092,165.319336 112.875977,160.616974 113.174423,155.454254
	C113.700066,155.051804 113.874138,155.109695 114.034668,155.622543
	C114.015457,159.232605 113.880516,162.395660 114.073303,165.538589
	C114.141975,166.658157 115.018837,168.685211 115.504333,168.678482
	C122.686287,168.578964 129.864456,168.206589 137.459930,167.934250
	C139.529404,167.852859 141.182480,167.736099 143.018707,167.926697
	C144.469406,168.783997 145.736923,169.333939 146.651077,169.919891
	C145.194565,170.217056 144.091431,170.478180 142.988297,170.739319
	C133.619827,170.778046 124.251343,170.816788 114.411499,170.821411
z"/>
<path fill="#ECEDEE" opacity="1.000000" stroke="none"
	d="
M108.324921,140.174255
	C109.179192,139.608490 111.227074,138.648132 111.399490,138.912231
	C113.121773,141.550217 118.625359,140.504440 117.841248,145.182709
	C117.633377,146.422913 115.695770,147.366959 114.567856,148.462906
	C114.215240,148.805527 113.913322,149.200348 113.292191,149.783508
	C110.291985,148.729507 108.753639,147.038956 109.876282,143.704193
	C110.172905,142.823120 109.094910,141.479263 108.324921,140.174255
z"/>
<path fill="#FAF8F4" opacity="1.000000" stroke="none"
	d="
M114.048203,155.167587
	C113.874138,155.109695 113.700066,155.051804 113.250824,154.992584
	C112.965347,153.875732 112.955040,152.760223 112.971008,151.323883
	C113.661133,151.763245 114.324974,152.523438 114.785782,153.720856
	C114.313980,154.309311 114.104897,154.519821 113.964020,154.887695
	C113.972565,154.985794 114.048203,155.167587 114.048203,155.167587
z"/>
<path fill="#2C315A" opacity="1.000000" stroke="none"
	d="
M95.000916,161.005859
	C95.000916,157.764862 95.000916,155.001450 95.000916,152.238052
	C98.948280,155.566818 98.686630,167.747711 95.000916,171.392380
	C95.000916,167.488983 95.000916,164.486206 95.000916,161.005859
z"/>
<path fill="#6A6A86" opacity="1.000000" stroke="none"
	d="
M103.629333,133.013855
	C105.514977,136.695465 103.931961,138.350510 100.007233,138.840485
	C99.416885,138.051773 99.192032,137.174179 98.956970,135.942444
	C100.390045,134.713684 101.833321,133.839050 103.629333,133.013855
z"/>
<path fill="#E79A84" opacity="1.000000" stroke="none"
	d="
M174.922104,140.734772
	C172.679047,144.945770 170.435989,149.156754 168.001663,153.677597
	C165.968002,154.277847 164.125610,154.568237 162.017670,154.434052
	C162.321213,152.020111 162.890289,150.030762 163.705688,147.830627
	C164.630096,145.411942 165.308197,143.204025 166.172852,140.684708
	C166.942352,138.276642 167.525299,136.179977 168.108231,134.083298
	C168.108231,134.083298 168.082764,134.010086 168.275162,133.948822
	C168.703690,133.657120 168.789413,133.380157 168.724747,133.056671
	C168.839996,132.609100 168.955246,132.161514 169.302887,131.169952
	C169.263535,129.768875 168.991760,128.911819 168.720001,128.054749
	C168.720001,128.054749 168.942673,127.885643 169.075531,127.929474
	C169.706146,127.791611 170.203918,127.609924 171.188385,127.162048
	C173.048294,125.646339 174.421494,124.396805 176.322098,122.667351
	C177.141235,124.654297 177.734299,126.092880 178.317017,127.888367
	C177.178482,132.408432 176.050293,136.571609 174.922104,140.734772
z"/>
<path fill="#333054" opacity="1.000000" stroke="none"
	d="
M160.440750,156.421112
	C159.341995,162.454483 155.962204,166.771622 150.067566,169.813202
	C149.384842,170.046951 149.188065,170.029709 148.992950,169.625366
	C149.966949,168.161957 150.907639,167.054794 151.919586,166.017105
	C153.186844,164.717606 154.668381,163.596725 155.775375,162.178589
	C157.306976,160.216492 158.575684,158.049164 160.077301,156.083252
	C160.197601,156.196777 160.440750,156.421112 160.440750,156.421112
z"/>
<path fill="#FAF8F4" opacity="1.000000" stroke="none"
	d="
M163.459366,148.041397
	C162.890289,150.030762 162.321213,152.020111 161.610718,154.365845
	C161.469284,154.722229 161.141129,154.797043 160.771393,154.914673
	C160.401657,155.032303 159.944336,155.209457 159.973801,155.115265
	C160.003265,155.021072 160.018738,154.824310 159.877472,154.584167
	C159.156998,153.897125 158.577774,153.450256 157.998566,153.003372
	C158.131577,152.349197 158.045853,151.471344 158.440857,151.085083
	C159.412567,150.134857 160.605362,149.410721 162.221313,148.308014
	C162.975357,148.027359 163.217361,148.034378 163.459366,148.041397
z"/>
<path fill="#5E446F" opacity="1.000000" stroke="none"
	d="
M148.991287,170.012466
	C149.188065,170.029709 149.384842,170.046951 149.875763,170.105011
	C150.169922,170.145859 150.116043,170.634430 150.026123,170.863846
	C149.749725,171.060455 149.563248,171.027634 149.151001,170.689407
	C148.925262,170.384018 148.991287,170.012466 148.991287,170.012466
z"/>
<path fill="#333054" opacity="1.000000" stroke="none"
	d="
M159.944336,155.209457
	C159.944336,155.209457 160.401657,155.032303 160.646240,155.027161
	C160.843597,155.353851 160.796387,155.685669 160.594955,156.219299
	C160.440750,156.421112 160.197601,156.196777 160.080688,155.893158
	C159.963791,155.589554 159.944336,155.209457 159.944336,155.209457
z"/>
<path fill="#2C3967" opacity="1.000000" stroke="none"
	d="
M159.973801,155.115265
	C159.944336,155.209457 159.963791,155.589554 159.960388,155.779633
	C158.575684,158.049164 157.306976,160.216492 155.775375,162.178589
	C154.668381,163.596725 153.186844,164.717606 151.919586,166.017105
	C150.907639,167.054794 149.966949,168.161957 148.992950,169.625366
	C148.991287,170.012466 148.925262,170.384018 148.893341,170.569946
	C148.474167,170.766830 148.086914,170.777756 147.385544,170.539017
	C147.071411,170.289337 147.004456,169.883865 147.004456,169.883865
	C145.736923,169.333939 144.469406,168.783997 143.111038,167.615860
	C145.055801,162.626801 144.430511,159.314468 141.200287,158.296402
	C137.871338,157.247223 135.285233,158.825027 134.793808,161.945023
	C134.506943,163.766342 136.226608,165.903702 137.043533,167.898865
	C129.864456,168.206589 122.686287,168.578964 115.504333,168.678482
	C115.018837,168.685211 114.141975,166.658157 114.073303,165.538589
	C113.880516,162.395660 114.015457,159.232605 114.034668,155.622543
	C114.048203,155.167587 113.972565,154.985794 114.335899,154.980774
	C115.459808,154.922012 116.220390,154.868286 116.980965,154.814575
	C118.703583,154.869354 120.426208,154.924149 122.995056,154.981934
	C125.558235,154.932663 127.275185,154.880386 129.319595,154.909760
	C130.089935,154.935486 130.532806,154.879562 131.417572,154.898712
	C134.246796,154.921021 136.634171,154.868271 139.385056,154.903229
	C140.489471,154.933350 141.230347,154.875748 142.405548,154.892792
	C144.891052,154.914337 146.942215,154.861221 149.445801,154.893463
	C153.271713,154.927322 156.645233,154.875824 160.018738,154.824310
	C160.018738,154.824310 160.003265,155.021072 159.973801,155.115265
z"/>
<path fill="#5E446F" opacity="1.000000" stroke="none"
	d="
M146.651077,169.919891
	C147.004456,169.883865 147.071411,170.289337 147.096725,170.493225
	C146.015045,170.773941 144.908051,170.850739 143.394684,170.833435
	C144.091431,170.478180 145.194565,170.217056 146.651077,169.919891
z"/>
<path fill="#C24D8A" opacity="1.000000" stroke="none"
	d="
M181.929779,123.972610
	C181.494370,123.981575 181.058960,123.990524 180.119339,123.723785
	C177.122345,122.650146 174.629578,121.852211 172.136795,121.054268
	C171.734848,111.242966 176.561676,103.468460 185.333984,100.963150
	C185.890579,102.194588 185.962463,103.041313 186.018616,104.327988
	C184.645172,111.169495 183.287476,117.571053 181.929779,123.972610
z"/>
<path fill="#CE908B" opacity="1.000000" stroke="none"
	d="
M194.170929,100.763664
	C194.143173,100.964737 194.115433,101.165802 193.775558,101.427231
	C192.127319,99.429680 190.791199,97.371758 189.455093,95.313835
	C189.738403,96.175285 190.021713,97.036736 190.305023,97.898186
	C188.875931,98.250175 187.446838,98.602165 186.017731,98.954132
	C185.054153,94.896347 184.007111,90.855682 183.170395,86.771927
	C182.860046,85.257179 183.043167,83.641327 183.001251,82.071579
	C184.288803,82.277298 185.602615,82.754799 186.858582,82.633423
	C189.666245,82.362083 192.445053,81.792290 195.536499,81.799484
	C193.229233,86.611374 189.362213,86.134239 185.006073,84.797272
	C186.071716,87.879944 187.041565,90.685471 188.056213,93.620605
	C189.613663,93.112282 190.833481,92.432899 192.091278,92.353203
	C197.062668,92.038193 198.872253,90.330177 199.007584,85.410309
	C199.048660,83.917038 198.962814,82.420273 198.935104,80.925110
	C199.594009,80.773628 200.252914,80.622147 200.889832,81.171631
	C200.547989,84.934082 200.228149,87.995552 199.908325,91.057030
	C199.908325,91.057030 199.755936,91.265320 199.549347,91.608398
	C199.119156,92.575790 198.895554,93.200096 198.671936,93.824402
	C198.671936,93.824402 198.827103,93.891624 198.475800,94.024467
	C196.686951,95.055962 195.249420,95.954620 193.846008,96.831947
	C193.959946,98.210602 194.065430,99.487129 194.170929,100.763664
z"/>
<path fill="#F1987C" opacity="1.000000" stroke="none"
	d="
M198.556763,80.974152
	C198.962814,82.420273 199.048660,83.917038 199.007584,85.410309
	C198.872253,90.330177 197.062668,92.038193 192.091278,92.353203
	C190.833481,92.432899 189.613663,93.112282 188.056213,93.620605
	C187.041565,90.685471 186.071716,87.879944 185.006073,84.797272
	C189.362213,86.134239 193.229233,86.611374 195.898834,81.929581
	C196.699677,81.410568 197.439056,81.216881 198.556763,80.974152
z"/>
<path fill="#EA9085" opacity="1.000000" stroke="none"
	d="
M185.920532,99.209106
	C187.446838,98.602165 188.875931,98.250175 190.305023,97.898186
	C190.021713,97.036736 189.738403,96.175285 189.455093,95.313835
	C190.791199,97.371758 192.127319,99.429680 193.741455,101.729782
	C194.040115,102.397766 194.060730,102.823555 193.941177,103.861450
	C190.848724,109.098877 188.646927,103.769058 186.034348,103.888031
	C185.962463,103.041313 185.890579,102.194588 185.702240,100.934982
	C185.664963,100.169411 185.744141,99.816734 185.920532,99.209106
z"/>
<path fill="#E68F98" opacity="1.000000" stroke="none"
	d="
M172.065277,121.426407
	C174.629578,121.852211 177.122345,122.650146 179.792725,123.728043
	C179.944885,124.330467 179.923828,124.653214 179.660980,125.407654
	C179.052307,126.403183 178.689835,126.967323 178.327362,127.531464
	C177.734299,126.092880 177.141235,124.654297 176.322098,122.667351
	C174.421494,124.396805 173.048294,125.646339 171.336334,126.932083
	C171.329651,125.245041 171.661697,123.521790 172.065277,121.426407
z"/>
<path fill="#2F1328" opacity="1.000000" stroke="none"
	d="
M194.495743,100.853806
	C194.065430,99.487129 193.959946,98.210602 193.846008,96.831947
	C195.249420,95.954620 196.686951,95.055962 198.421387,93.959747
	C198.461777,94.634583 198.473969,95.972481 197.903839,96.301575
	C194.881729,98.046051 196.538391,99.595024 197.953583,101.562859
	C196.951309,101.580086 195.885925,101.262016 194.495743,100.853806
z"/>
<path fill="#2F1328" opacity="1.000000" stroke="none"
	d="
M200.256042,90.870270
	C200.228149,87.995552 200.547989,84.934082 200.979523,81.480896
	C200.928726,84.287285 200.766251,87.485397 200.256042,90.870270
z"/>
<path fill="#F6F5F5" opacity="1.000000" stroke="none"
	d="
M162.613434,120.366730
	C162.150589,120.148766 161.587387,119.594917 161.148651,118.702621
	C161.686447,118.919731 162.099762,119.475296 162.613434,120.366730
z"/>
<path fill="#2F1328" opacity="1.000000" stroke="none"
	d="
M199.014587,93.694153
	C198.895554,93.200096 199.119156,92.575790 199.596558,91.728516
	C199.685959,92.191666 199.521591,92.877785 199.014587,93.694153
z"/>
<path fill="#E74894" opacity="1.000000" stroke="none"
	d="
M186.018616,104.327988
	C188.646927,103.769058 190.848724,109.098877 193.960739,104.180344
	C200.017075,104.348351 199.294128,109.682175 201.000763,113.865852
	C201.007477,114.671867 201.011047,114.841949 201.014603,115.012024
	C201.346252,117.073814 201.677902,119.135605 202.012390,121.595001
	C198.358429,123.295052 195.295242,126.575989 190.596542,123.834831
	C188.681870,122.717842 185.441467,123.873337 182.367004,123.983749
	C183.287476,117.571053 184.645172,111.169495 186.018616,104.327988
z"/>
<path fill="#241130" opacity="1.000000" stroke="none"
	d="
M178.317017,127.888367
	C178.689835,126.967323 179.052307,126.403183 179.693329,125.648254
	C180.080063,125.604752 180.188293,125.752045 180.546997,126.415306
	C181.290314,128.288361 181.783173,129.645447 182.276016,131.002518
	C182.324707,132.709320 182.373398,134.416122 182.468384,136.547058
	C182.232986,138.502625 181.951309,140.034088 181.363739,141.810608
	C179.261124,141.721100 177.464401,141.386536 175.294891,140.893372
	C176.050293,136.571609 177.178482,132.408432 178.317017,127.888367
z"/>
<path fill="#AD528F" opacity="1.000000" stroke="none"
	d="
M182.467438,130.800583
	C181.783173,129.645447 181.290314,128.288361 180.769257,126.575836
	C182.276001,126.385559 183.810959,126.550720 185.677414,126.751549
	C184.500244,128.251816 183.579544,129.425232 182.467438,130.800583
z"/>
<path fill="#DA4F92" opacity="1.000000" stroke="none"
	d="
M201.179535,114.919289
	C201.011047,114.841949 201.007477,114.671867 201.007965,114.246567
	C201.122833,114.269745 201.233658,114.548149 201.179535,114.919289
z"/>
<path fill="#EA9A84" opacity="1.000000" stroke="none"
	d="
M125.961487,148.069717
	C125.611832,147.697800 125.262177,147.325867 124.569817,146.529419
	C125.613205,144.419495 126.941338,141.342468 128.395126,141.281906
	C135.968277,140.966446 143.573380,141.418549 151.070633,141.891357
	C149.288834,144.145081 147.603790,146.110947 145.591583,148.220627
	C140.511673,148.428436 135.758926,148.492432 130.603607,148.427399
	C128.787872,148.222153 127.374680,148.145935 125.961487,148.069717
z"/>
<path fill="#FAF8F4" opacity="1.000000" stroke="none"
	d="
M151.167374,141.603485
	C143.573380,141.418549 135.968277,140.966446 128.395126,141.281906
	C126.941338,141.342468 125.613205,144.419495 124.308403,146.476562
	C120.941528,147.296371 120.397346,145.633484 121.618401,142.888504
	C122.260704,141.444565 123.147430,140.109360 124.426079,138.362732
	C135.629181,137.999054 146.329987,137.997696 157.030807,137.996338
	C157.987335,138.760925 159.840240,140.092606 159.768204,140.206467
	C158.285004,142.550858 156.582596,144.756561 154.561096,146.624023
	C153.188126,144.706650 152.177750,143.155060 151.167374,141.603485
z"/>
<path fill="#EB746D" opacity="1.000000" stroke="none"
	d="
M129.107697,102.012886
	C129.148529,101.600922 129.189346,101.188950 129.637833,100.397247
	C132.363007,98.002945 134.680511,95.988380 137.343903,94.031792
	C145.974243,99.732254 138.811295,105.766144 138.499283,111.738533
	C136.684814,111.913353 135.221756,112.054306 133.547516,112.211914
	C133.336334,112.228569 132.916718,112.170013 132.901520,111.793365
	C131.626785,108.282112 130.367233,105.147499 129.107697,102.012886
z"/>
<path fill="#DB8C8A" opacity="1.000000" stroke="none"
	d="
M153.662567,89.125961
	C153.825623,90.184738 153.988663,91.243515 154.255402,92.908554
	C154.458603,93.815193 154.647583,94.040710 154.926010,94.191345
	C155.014328,94.895905 155.102631,95.600471 155.193069,96.975769
	C153.451904,97.806252 151.708603,97.966003 149.954712,98.126724
	C149.954712,99.550011 149.954712,101.769257 149.711639,104.110474
	C149.011551,104.525032 148.554535,104.817627 148.062378,104.645889
	C148.358292,99.714706 148.689316,95.247849 149.008667,90.938751
	C145.253922,91.864166 146.543640,87.587593 145.180084,85.761986
	C146.015305,84.812187 146.569901,83.947159 147.355362,83.438797
	C148.752777,82.534348 150.289917,81.845810 151.768631,81.066971
	C151.768631,81.066971 151.907791,81.062759 151.942719,81.375656
	C152.257645,82.553726 152.537643,83.418892 152.817642,84.284050
	C152.875534,84.963737 152.933426,85.643417 153.034637,86.940117
	C153.272827,88.080078 153.467697,88.603020 153.662567,89.125961
z"/>
<path fill="#F7A89F" opacity="1.000000" stroke="none"
	d="
M136.998032,93.973801
	C134.680511,95.988380 132.363007,98.002945 129.737411,100.101410
	C129.306625,99.374847 129.183914,98.564392 129.406494,97.272446
	C129.948151,95.152306 130.144501,93.513664 130.354294,91.762718
	C131.156311,90.454453 132.129410,88.867096 133.425140,87.159340
	C136.140060,84.984795 138.532364,82.930656 140.973999,81.223663
	C142.039062,83.065163 143.054810,84.559502 143.909302,86.342865
	C141.498047,89.079193 139.248032,91.526497 136.998032,93.973801
z"/>
<path fill="#DA8A85" opacity="1.000000" stroke="none"
	d="
M133.102524,87.279747
	C132.129410,88.867096 131.156311,90.454453 130.354294,91.762718
	C130.144501,93.513664 129.948151,95.152306 129.436646,96.861801
	C127.697151,97.560959 126.272804,98.189255 123.230530,99.531235
	C124.511948,93.656723 125.502403,89.116112 127.049423,84.222595
	C128.080582,82.927849 128.555191,81.986008 129.017502,81.024246
	C129.005203,81.004341 129.044312,81.030212 129.380493,81.028580
	C130.484406,81.362717 131.252136,81.698494 132.174164,82.381897
	C132.586472,84.246262 132.844498,85.763008 133.102524,87.279747
z"/>
<path fill="#D0EAF5" opacity="1.000000" stroke="none"
	d="
M141.018433,124.958847
	C143.770615,125.703339 146.522797,126.447830 150.508972,127.526138
	C143.476196,132.040756 133.126312,132.079941 128.130829,127.740471
	C131.606934,126.691101 134.399399,125.848106 137.874359,125.016541
	C139.377396,125.004936 140.197906,124.981895 141.018433,124.958847
z"/>
<path fill="#EFAFAC" opacity="1.000000" stroke="none"
	d="
M144.070557,86.053841
	C143.054810,84.559502 142.039062,83.065163 140.989288,81.001633
	C140.955246,80.432457 140.982330,79.985916 141.277603,79.828888
	C144.215881,76.727661 146.858887,73.783470 149.501907,70.839279
	C150.289978,73.978287 151.078064,77.117302 151.817383,80.661636
	C150.289917,81.845810 148.752777,82.534348 147.355362,83.438797
	C146.569901,83.947159 146.015305,84.812187 144.946838,85.773529
	C144.536987,86.030525 144.070557,86.053841 144.070557,86.053841
z"/>
<path fill="#E3DDE1" opacity="1.000000" stroke="none"
	d="
M135.927338,66.326660
	C137.188080,64.894554 138.448822,63.462452 139.709549,62.030342
	C141.000809,63.267181 142.292084,64.504021 143.777405,66.330887
	C142.623077,70.570091 141.274658,74.219254 139.670502,77.737373
	C138.888489,77.071091 138.362228,76.535851 137.857300,75.702545
	C137.603851,74.908722 137.329041,74.412971 137.026108,73.608704
	C136.700027,72.533806 136.402054,71.767426 136.093140,70.620667
	C136.070724,69.480080 136.059250,68.719879 136.212372,67.862556
	C136.231308,67.483406 136.085648,67.201393 135.913940,66.771683
	C135.887863,66.623993 135.927338,66.326660 135.927338,66.326660
z"/>
<path fill="#D1706D" opacity="1.000000" stroke="none"
	d="
M139.926254,77.868423
	C141.274658,74.219254 142.623077,70.570091 144.064789,66.577469
	C144.158112,66.234009 144.147354,66.197266 144.355881,66.196602
	C144.564407,66.195938 144.948563,66.083336 144.948563,66.083336
	C146.409149,67.436813 147.869720,68.790283 149.416107,70.491516
	C146.858887,73.783470 144.215881,76.727661 141.052216,79.713943
	C140.339645,79.483406 140.147751,79.210770 139.963684,78.670288
	C139.956421,78.224434 139.941345,78.046425 139.926254,77.868423
z"/>
<path fill="#E3EEF3" opacity="1.000000" stroke="none"
	d="
M141.016266,124.541946
	C140.197906,124.981895 139.377396,125.004936 138.275742,125.008942
	C137.770615,122.579002 137.546616,120.168098 137.182770,117.073982
	C137.377792,115.605522 137.712646,114.820282 138.332916,114.004410
	C139.095276,113.689140 139.572205,113.404495 140.395004,113.058929
	C141.438400,112.941902 142.135925,112.885803 143.176468,112.896820
	C148.527191,113.737701 142.792938,115.787544 144.000458,117.012741
	C140.049255,118.142418 141.133591,121.386475 141.016266,124.541946
z"/>
<path fill="#D9D1D2" opacity="1.000000" stroke="none"
	d="
M144.421906,117.009995
	C142.792938,115.787544 148.527191,113.737701 143.265411,112.570747
	C144.706726,109.821777 146.402130,107.465996 148.097519,105.110214
	C148.554535,104.817627 149.011551,104.525032 149.775330,104.379623
	C150.134766,104.703560 150.187439,104.880302 150.240143,105.057053
	C150.162125,107.349792 149.928665,109.650200 150.041229,111.933548
	C150.227036,115.703026 148.717209,117.508072 144.421906,117.009995
z"/>
<path fill="#ECEDEE" opacity="1.000000" stroke="none"
	d="
M156.938370,137.597626
	C146.329987,137.997696 135.629181,137.999054 124.466164,138.001129
	C123.457893,137.789856 122.911827,137.577881 122.365753,137.365921
	C122.395355,137.123322 122.424950,136.880737 122.454552,136.638138
	C124.693901,136.755920 126.933243,136.873703 129.904602,136.968964
	C131.426147,136.625885 132.215668,136.305328 133.005188,135.984772
	C139.460403,135.989059 145.917114,135.920135 152.369720,136.052246
	C153.868988,136.082947 155.354233,136.798492 156.938370,137.597626
z"/>
<path fill="#FAF8F4" opacity="1.000000" stroke="none"
	d="
M125.809402,148.371811
	C127.374680,148.145935 128.787872,148.222153 130.601776,148.751465
	C130.335190,150.800797 129.667908,152.397049 128.997314,154.201996
	C128.993988,154.410675 128.992142,154.828110 128.992142,154.828110
	C127.275185,154.880386 125.558235,154.932663 123.419174,154.901215
	C123.883827,152.769623 124.770576,150.721771 125.809402,148.371811
z"/>
<path fill="#E9EAE7" opacity="1.000000" stroke="none"
	d="
M148.627014,52.000042
	C150.161942,52.133320 151.248978,52.266365 152.336014,52.399410
	C152.335526,52.715096 152.335037,53.030781 152.334564,53.346466
	C145.787445,53.346466 139.240311,53.346466 132.693192,53.346466
	C132.656342,52.897579 132.619492,52.448696 132.582642,51.999809
	C137.781479,51.999809 142.980301,51.999809 148.627014,52.000042
z"/>
<path fill="#FCF3EE" opacity="1.000000" stroke="none"
	d="
M150.564819,104.991112
	C150.187439,104.880302 150.134766,104.703560 150.018402,104.257660
	C149.954712,101.769257 149.954712,99.550011 149.954712,98.126724
	C151.708603,97.966003 153.451904,97.806252 155.329178,97.304626
	C158.747864,97.249451 158.524948,98.945023 156.687439,100.673889
	C154.955063,102.303825 152.837601,103.524475 150.564819,104.991112
z"/>
<path fill="#DAAFAA" opacity="1.000000" stroke="none"
	d="
M135.569168,66.220284
	C135.927338,66.326660 135.887863,66.623993 135.933655,67.033073
	C136.002228,67.614662 136.024994,67.787178 136.047775,67.959686
	C136.059250,68.719879 136.070724,69.480080 135.795151,70.434616
	C133.416595,67.917198 131.662292,69.014145 130.894852,71.481735
	C129.937881,74.558784 129.631561,77.838181 129.044312,81.030212
	C129.044312,81.030212 129.005203,81.004341 128.736359,81.011063
	C128.095428,81.021111 127.723320,81.024429 127.351219,81.027748
	C128.066742,77.354790 128.280609,73.470642 129.701843,70.094780
	C130.452866,68.310883 133.306595,67.412231 135.569168,66.220284
z"/>
<path fill="#E2E3E1" opacity="1.000000" stroke="none"
	d="
M113.883186,38.982307
	C110.135551,38.982567 106.861557,38.982567 103.587563,38.982567
	C103.604019,38.473099 103.620468,37.963631 103.636925,37.454163
	C109.176567,37.454163 114.716202,37.454163 120.255844,37.454163
	C120.304749,37.794792 120.353645,38.135426 120.402550,38.476055
	C118.387306,38.644722 116.372070,38.813385 113.883186,38.982307
z"/>
<path fill="#CF6555" opacity="1.000000" stroke="none"
	d="
M151.070633,141.891357
	C152.177750,143.155060 153.188126,144.706650 154.178131,146.648071
	C153.867020,147.245148 153.576294,147.452377 152.812286,147.905502
	C151.633133,148.189911 150.927277,148.228409 149.806961,148.160339
	C148.835663,148.142914 148.278824,148.232056 147.416840,148.323364
	C146.714050,148.242630 146.316406,148.159714 145.918747,148.076813
	C147.603790,146.110947 149.288834,144.145081 151.070633,141.891357
z"/>
<path fill="#E9EAE7" opacity="1.000000" stroke="none"
	d="
M112.287834,42.989891
	C115.485054,42.989273 118.243149,42.989273 121.001251,42.989273
	C120.999054,43.243874 120.996857,43.498474 120.994659,43.753075
	C115.340981,44.017311 109.687302,44.281544 103.845535,44.554569
	C103.776253,43.443169 103.692421,42.098389 103.591736,40.483143
	C106.385674,41.331570 109.117195,42.161037 112.287834,42.989891
z"/>
<path fill="#E2E3E1" opacity="1.000000" stroke="none"
	d="
M144.973984,134.987213
	C141.291580,134.998596 137.609161,135.009979 133.090698,135.020599
	C131.501419,135.022522 130.748199,135.025192 129.994980,135.027863
	C128.911179,134.928162 127.827385,134.828461 126.743591,134.728760
	C126.775208,134.161469 126.806824,133.594177 126.838440,133.026871
	C132.596970,133.346451 138.355515,133.666016 144.556152,134.232086
	C144.990173,134.648148 144.982086,134.817673 144.973984,134.987213
z"/>
<path fill="#F3E5DF" opacity="1.000000" stroke="none"
	d="
M163.705688,147.830627
	C163.217361,148.034378 162.975357,148.027359 162.370636,148.004425
	C162.131470,145.767883 162.255035,143.547241 163.061951,141.160553
	C164.492294,140.995026 165.239304,140.995560 165.986298,140.996094
	C165.308197,143.204025 164.630096,145.411942 163.705688,147.830627
z"/>
<path fill="#FAF8F4" opacity="1.000000" stroke="none"
	d="
M150.221405,148.266922
	C150.927277,148.228409 151.633133,148.189911 152.692871,148.149994
	C152.724533,149.846756 152.402328,151.544937 151.663818,153.618393
	C150.498993,153.992462 149.750488,153.991241 148.962708,153.625717
	C148.616699,151.840179 148.309937,150.418945 148.293640,148.935120
	C149.129883,148.670670 149.675644,148.468796 150.221405,148.266922
z"/>
<path fill="#D0DAE3" opacity="1.000000" stroke="none"
	d="
M138.047516,114.035034
	C137.712646,114.820282 137.377792,115.605522 137.016113,116.713425
	C134.667282,116.307144 131.261093,118.886360 130.506104,114.369904
	C133.322815,113.996613 135.685165,114.015823 138.047516,114.035034
z"/>
<path fill="#F6F5F5" opacity="1.000000" stroke="none"
	d="
M166.172852,140.684708
	C165.239304,140.995560 164.492294,140.995026 163.371643,140.992432
	C164.446457,138.674500 165.894958,136.358627 167.725845,134.063034
	C167.525299,136.179977 166.942352,138.276642 166.172852,140.684708
z"/>
<path fill="#E98882" opacity="1.000000" stroke="none"
	d="
M128.992035,102.447144
	C130.367233,105.147499 131.626785,108.282112 132.534943,111.789673
	C131.448776,112.140648 130.714005,112.118668 129.979218,112.096695
	C129.611603,109.024933 129.244003,105.953163 128.992035,102.447144
z"/>
<path fill="#D9D1D2" opacity="1.000000" stroke="none"
	d="
M129.992371,112.406326
	C130.714005,112.118668 131.448776,112.140648 132.550140,112.166321
	C132.916718,112.170013 133.336334,112.228569 133.870834,112.450211
	C136.286606,112.821175 138.167862,112.970512 140.049133,113.119843
	C139.572205,113.404495 139.095276,113.689140 138.332916,114.004410
	C135.685165,114.015823 133.322815,113.996613 130.525284,113.964874
	C130.061905,113.540222 130.033722,113.128090 129.992371,112.406326
z"/>
<path fill="#F3F2F5" opacity="1.000000" stroke="none"
	d="
M149.001968,153.990005
	C149.750488,153.991241 150.498993,153.992462 151.621613,153.989532
	C153.822601,153.846817 155.649460,153.708267 157.737457,153.286560
	C158.577774,153.450256 159.156998,153.897125 159.877472,154.584167
	C156.645233,154.875824 153.271713,154.927322 149.445587,154.688919
	C148.992981,154.399002 149.001968,153.990005 149.001968,153.990005
z"/>
<path fill="#FAF7F6" opacity="1.000000" stroke="none"
	d="
M145.386169,134.992493
	C144.982086,134.817673 144.990173,134.648148 145.006561,134.223801
	C146.755798,133.600159 148.496750,133.231323 150.237701,132.862503
	C150.336151,133.430252 150.434616,133.998001 150.533066,134.565750
	C148.954834,134.709747 147.376587,134.853760 145.386169,134.992493
z"/>
<path fill="#FAF7F6" opacity="1.000000" stroke="none"
	d="
M123.289871,134.731415
	C122.147774,134.727997 121.312370,134.592621 120.476967,134.457230
	C120.707161,134.000046 120.937347,133.542847 121.167542,133.085663
	C121.977219,133.590256 122.786896,134.094864 123.289871,134.731415
z"/>
<path fill="#F6F5F5" opacity="1.000000" stroke="none"
	d="
M168.468750,128.217651
	C168.991760,128.911819 169.263535,129.768875 169.318680,130.822876
	C168.807220,130.140076 168.512360,129.260315 168.468750,128.217651
z"/>
<path fill="#EFA297" opacity="1.000000" stroke="none"
	d="
M127.236671,81.382660
	C127.723320,81.024429 128.095428,81.021111 128.748657,81.030975
	C128.555191,81.986008 128.080582,82.927849 127.258362,83.913315
	C126.981194,83.217155 127.051659,82.477364 127.236671,81.382660
z"/>
<path fill="#FCF3EE" opacity="1.000000" stroke="none"
	d="
M152.961273,83.976135
	C152.537643,83.418892 152.257645,82.553726 152.001755,81.338760
	C152.385559,81.882050 152.745239,82.775139 152.961273,83.976135
z"/>
<path fill="#FAF7F6" opacity="1.000000" stroke="none"
	d="
M129.996674,135.353882
	C130.748199,135.025192 131.501419,135.022522 132.631165,135.034515
	C133.007675,135.049194 133.003464,135.517166 133.004333,135.750977
	C132.215668,136.305328 131.426147,136.625885 130.315720,136.965347
	C129.996002,136.549469 129.997192,136.114700 129.996674,135.353882
z"/>
<path fill="#FCF3EE" opacity="1.000000" stroke="none"
	d="
M153.936081,88.986679
	C153.467697,88.603020 153.272827,88.080078 153.120239,87.270866
	C153.511551,87.605537 153.860565,88.226463 153.936081,88.986679
z"/>
<path fill="#F3F2F5" opacity="1.000000" stroke="none"
	d="
M116.796967,154.602051
	C116.220390,154.868286 115.459808,154.922012 114.327362,154.882675
	C114.104897,154.519821 114.313980,154.309311 114.791374,154.074005
	C115.537659,154.123123 116.075310,154.256332 116.796967,154.602051
z"/>
<path fill="#F6F5F5" opacity="1.000000" stroke="none"
	d="
M168.555542,133.183990
	C168.789413,133.380157 168.703690,133.657120 168.263657,133.985809
	C168.079086,133.788605 168.187943,133.531006 168.555542,133.183990
z"/>
<path fill="#FCF3EE" opacity="1.000000" stroke="none"
	d="
M154.905243,93.974648
	C154.647583,94.040710 154.458603,93.815193 154.374023,93.292419
	C154.637741,93.239052 154.802933,93.468353 154.905243,93.974648
z"/>
<path fill="#E3DDE1" opacity="1.000000" stroke="none"
	d="
M144.885986,65.894852
	C144.948563,66.083336 144.564407,66.195938 144.365845,66.182724
	C144.385986,66.015121 144.604706,65.860748 144.885986,65.894852
z"/>
<path fill="#6B729E" opacity="1.000000" stroke="none"
	d="
M137.459930,167.934250
	C136.226608,165.903702 134.506943,163.766342 134.793808,161.945023
	C135.285233,158.825027 137.871338,157.247223 141.200287,158.296402
	C144.430511,159.314468 145.055801,162.626801 142.927856,167.308502
	C141.182480,167.736099 139.529404,167.852859 137.459930,167.934250
z"/>
<path fill="#FBFBFB" opacity="1.000000" stroke="none"
	d="
M148.962708,153.625717
	C149.001968,153.990005 148.992981,154.399002 148.993195,154.603546
	C146.942215,154.861221 144.891052,154.914337 142.212524,154.676605
	C140.730621,154.528992 139.876083,154.672241 139.021530,154.815506
	C136.634171,154.868271 134.246796,154.921021 131.235458,154.684662
	C130.074524,154.261475 129.537567,154.127380 129.000610,153.993301
	C129.667908,152.397049 130.335190,150.800797 131.004333,148.880493
	C135.758926,148.492432 140.511673,148.428436 145.591583,148.220627
	C146.316406,148.159714 146.714050,148.242630 147.484161,148.493256
	C147.856628,148.660980 148.003174,148.997696 148.003174,148.997696
	C148.309937,150.418945 148.616699,151.840179 148.962708,153.625717
z"/>
<path fill="#F3F2F5" opacity="1.000000" stroke="none"
	d="
M139.385056,154.903229
	C139.876083,154.672241 140.730621,154.528992 141.778198,154.601929
	C141.230347,154.875748 140.489471,154.933350 139.385056,154.903229
z"/>
<path fill="#F3F2F5" opacity="1.000000" stroke="none"
	d="
M128.997299,154.201996
	C129.537567,154.127380 130.074524,154.261475 130.793579,154.609604
	C130.532806,154.879562 130.089935,154.935486 129.319595,154.909760
	C128.992142,154.828110 128.993988,154.410675 128.997299,154.201996
z"/>
<path fill="#E98882" opacity="1.000000" stroke="none"
	d="
M140.395004,113.058929
	C138.167862,112.970512 136.286606,112.821175 134.082001,112.433556
	C135.221756,112.054306 136.684814,111.913353 138.499283,111.738533
	C138.811295,105.766144 145.974243,99.732254 137.343903,94.031784
	C139.248032,91.526497 141.498047,89.079193 143.909302,86.342865
	C144.070557,86.053841 144.536987,86.030525 144.770233,86.018982
	C146.543640,87.587593 145.253922,91.864166 149.008667,90.938751
	C148.689316,95.247849 148.358292,99.714706 148.062378,104.645889
	C146.402130,107.465996 144.706726,109.821777 142.922394,112.503624
	C142.135925,112.885803 141.438400,112.941902 140.395004,113.058929
z"/>
<path fill="#DE7A76" opacity="1.000000" stroke="none"
	d="
M139.955856,78.938133
	C140.147751,79.210770 140.339645,79.483406 140.756943,79.870972
	C140.982330,79.985916 140.955246,80.432457 140.939941,80.654488
	C138.532364,82.930656 136.140060,84.984795 133.425140,87.159340
	C132.844498,85.763008 132.586472,84.246262 132.463104,82.168823
	C134.083237,79.044495 135.568741,76.480865 137.054230,73.917229
	C137.329041,74.412971 137.603851,74.908722 137.552795,75.736259
	C135.683685,79.356987 138.676086,78.333366 139.955856,78.938133
z"/>
<path fill="#EFA297" opacity="1.000000" stroke="none"
	d="
M137.026108,73.608704
	C135.568741,76.480865 134.083237,79.044495 132.308807,81.821198
	C131.252136,81.698494 130.484406,81.362717 129.380493,81.028580
	C129.631561,77.838181 129.937881,74.558784 130.894852,71.481735
	C131.662292,69.014145 133.416595,67.917198 135.806091,70.815002
	C136.402054,71.767426 136.700027,72.533806 137.026108,73.608704
z"/>
<path fill="#EFA297" opacity="1.000000" stroke="none"
	d="
M139.963684,78.670288
	C138.676086,78.333366 135.683685,79.356987 137.531464,76.034332
	C138.362228,76.535851 138.888489,77.071091 139.670502,77.737373
	C139.941345,78.046425 139.956421,78.224434 139.963684,78.670288
z"/>
<path fill="#FBFBFB" opacity="1.000000" stroke="none"
	d="
M136.212372,67.862556
	C136.024994,67.787178 136.002228,67.614662 135.959717,67.180763
	C136.085648,67.201393 136.231308,67.483406 136.212372,67.862556
z"/>
<path fill="#EA9A84" opacity="1.000000" stroke="none"
	d="
M148.293640,148.935120
	C148.003174,148.997696 147.856628,148.660980 147.789307,148.491089
	C148.278824,148.232056 148.835663,148.142914 149.806961,148.160355
	C149.675644,148.468796 149.129883,148.670670 148.293640,148.935120
z"/>
</svg>
